<svg xmlns="http://www.w3.org/2000/svg" xmlns:xlink="http://www.w3.org/1999/xlink" xmlns:inkscape="http://www.inkscape.org/namespaces/inkscape" version="1.1" width="607.92" height="492" viewBox="0 0 607.92 492">

<!-- White background -->
  <rect x="0" y="0"
        width="607.92"
        height="492"
        fill="#ffffff"/>

<defs>
<clipPath id="clip_1">
<path transform="matrix(.24,0,0,.24,0,0)" d="M28.125 18.75H2506.25V2031.25H28.125Z" clip-rule="evenodd"/>
</clipPath>
</defs>
<g clip-path="url(#clip_1)">
<path transform="matrix(.70334759,0,0,.70334759,8.209091,-134.71616)" d="M452 360H828C828.7879 360 829.56826 360.07685 830.341 360.23057 831.11386 360.38429 831.8642 360.61189 832.59219 360.91343 833.32009 361.21495 834.0116 361.58457 834.66677 362.0223 835.3219 362.46009 835.92807 362.95756 836.4852 363.5147 837.04238 364.07185 837.5398 364.67799 837.9775 365.33314 838.4153 365.98826 838.7849 366.6798 839.0864 367.40776 839.388 368.1357 839.6156 368.8861 839.76937 369.6589 839.9231 370.43168 840 371.21205 840 372V428C840 428.7879 839.9231 429.56825 839.76937 430.34104 839.6156 431.1138 839.388 431.86418 839.0865 432.5921 838.785 433.32008 838.4153 434.01164 837.9775 434.66676 837.5398 435.3219 837.04238 435.92808 836.4852 436.48524 835.92807 437.04237 835.3219 437.5398 834.66677 437.97758 834.0116 438.41535 833.32009 438.78498 832.59219 439.08653 831.8642 439.38804 831.11386 439.61567 830.341 439.76939 829.56826 439.9231 828.7879 439.99998 828 440H452C451.21208 439.99998 450.4317 439.9231 449.6589 439.76939 448.8861 439.61567 448.1357 439.38804 447.40776 439.0865 446.67979 438.78495 445.98823 438.4153 445.3331 437.97755 444.67796 437.5398 444.0718 437.04237 443.51469 436.48524 442.95753 435.92808 442.46006 435.3219 442.0223 434.66679 441.58457 434.01167 441.21495 433.3201 440.9134 432.59214 440.61186 431.86418 440.38426 431.1138 440.23054 430.34104 440.0768 429.56825 439.99998 428.7879 440 428V372C439.99998 371.21205 440.0768 370.43168 440.2305 369.65888 440.38423 368.88609 440.61186 368.13569 440.91337 367.4077 441.2149 366.67979 441.58454 365.98826 442.0223 365.33314 442.46006 364.67799 442.95753 364.07185 443.51469 363.5147 444.0718 362.95756 444.67796 362.46009 445.3331 362.02235 445.98823 361.58457 446.67979 361.21495 447.40776 360.91343 448.1357 360.61189 448.8861 360.38429 449.6589 360.23057 450.4317 360.07685 451.21208 360 452 360Z" fill="#f0cd43"/>
<path transform="matrix(.70334759,0,0,.70334759,8.209091,-134.71616)" stroke-width="2" stroke-linecap="butt" stroke-miterlimit="4" stroke-linejoin="miter" fill="none" stroke="#d17c00" d="M452 360H828C828.7879 360 829.56826 360.07685 830.341 360.23057 831.11386 360.38429 831.8642 360.61189 832.59219 360.91343 833.32009 361.21495 834.0116 361.58457 834.66677 362.0223 835.3219 362.46009 835.92807 362.95756 836.4852 363.5147 837.04238 364.07185 837.5398 364.67799 837.9775 365.33314 838.4153 365.98826 838.7849 366.6798 839.0864 367.40776 839.388 368.1357 839.6156 368.8861 839.76937 369.6589 839.9231 370.43168 840 371.21205 840 372V428C840 428.7879 839.9231 429.56825 839.76937 430.34104 839.6156 431.1138 839.388 431.86418 839.0865 432.5921 838.785 433.32008 838.4153 434.01164 837.9775 434.66676 837.5398 435.3219 837.04238 435.92808 836.4852 436.48524 835.92807 437.04237 835.3219 437.5398 834.66677 437.97758 834.0116 438.41535 833.32009 438.78498 832.59219 439.08653 831.8642 439.38804 831.11386 439.61567 830.341 439.76939 829.56826 439.9231 828.7879 439.99998 828 440H452C451.21208 439.99998 450.4317 439.9231 449.6589 439.76939 448.8861 439.61567 448.1357 439.38804 447.40776 439.0865 446.67979 438.78495 445.98823 438.4153 445.3331 437.97755 444.67796 437.5398 444.0718 437.04237 443.51469 436.48524 442.95753 435.92808 442.46006 435.3219 442.0223 434.66679 441.58457 434.01167 441.21495 433.3201 440.9134 432.59214 440.61186 431.86418 440.38426 431.1138 440.23054 430.34104 440.0768 429.56825 439.99998 428.7879 440 428V372C439.99998 371.21205 440.0768 370.43168 440.2305 369.65888 440.38423 368.88609 440.61186 368.13569 440.91337 367.4077 441.2149 366.67979 441.58454 365.98826 442.0223 365.33314 442.46006 364.67799 442.95753 364.07185 443.51469 363.5147 444.0718 362.95756 444.67796 362.46009 445.3331 362.02235 445.98823 361.58457 446.67979 361.21495 447.40776 360.91343 448.1357 360.61189 448.8861 360.38429 449.6589 360.23057 450.4317 360.07685 451.21208 360 452 360Z"/>
<text xml:space="preserve" transform="matrix(.70334759 0 0 .70334759 8.209091 -134.71616)" font-size="16" font-family="Arial" font-weight="bold"><tspan y="406" x="540.8594 552.4114 556.8594 566.6354 576.4114 581.7394 591.5154 600.4114 609.3074 618.20339 622.65139 627.09939 640.42739 649.32339 663.54739 673.32339 682.21939 686.66738 698.21939 702.66738 712.44338 721.33938 730.23538">High-Level Mamba Blocks</tspan></text>
<path transform="matrix(.70334759,0,0,.70334759,8.560764,-134.36449)" d="M440 200H520V240H440Z" fill="#9ee899"/>
<path transform="matrix(.70334759,0,0,.70334759,8.560764,-134.36449)" stroke-width="1" stroke-linecap="butt" stroke-miterlimit="4" stroke-linejoin="miter" fill="none" stroke="#82b366" d="M440 200H520V240H440Z"/>
<text xml:space="preserve" transform="matrix(.70334759 0 0 .70334759 8.209091 -134.71616)" font-size="16" font-family="Arial" font-weight="bold"><tspan y="224" x="464.875">S</tspan></text>
<text xml:space="preserve" transform="matrix(.70334759 0 0 .70334759 8.209091 -134.71616)" font-size="16" font-family="Arial" font-weight="bold"><tspan y="228.1875" x="475.54689 480.87489 486.20289">t-1</tspan></text>
<path transform="matrix(.70334759,0,0,.70334759,8.560764,-134.36449)" d="M520 200H600V240H520Z" fill="#a4b5fc"/>
<path transform="matrix(.70334759,0,0,.70334759,8.560764,-134.36449)" stroke-width="1" stroke-linecap="butt" stroke-miterlimit="4" stroke-linejoin="miter" fill="none" stroke="#6c8ebf" d="M520 200H600V240H520Z"/>
<text xml:space="preserve" transform="matrix(.70334759 0 0 .70334759 8.209091 -134.71616)" font-size="16" font-family="Arial" font-weight="bold"><tspan y="224" x="539.9844 550.6564">Sg</tspan></text>
<text xml:space="preserve" transform="matrix(.70334759 0 0 .70334759 8.209091 -134.71616)" font-size="16" font-family="Arial" font-weight="bold"><tspan y="228.1875" x="560.4375 565.7655 571.0935">t-1</tspan></text>
<path transform="matrix(.70334759,0,0,.70334759,8.560764,-134.36449)" d="M600 200H680V240H600Z" fill="#9ee899"/>
<path transform="matrix(.70334759,0,0,.70334759,8.560764,-134.36449)" stroke-width="1" stroke-linecap="butt" stroke-miterlimit="4" stroke-linejoin="miter" fill="none" stroke="#82b366" d="M600 200H680V240H600Z"/>
<text xml:space="preserve" transform="matrix(.70334759 0 0 .70334759 8.209091 -134.71616)" font-size="16" font-family="Arial" font-weight="bold"><tspan y="224" x="632">S</tspan></text>
<text xml:space="preserve" transform="matrix(.70334759 0 0 .70334759 8.209091 -134.71616)" font-size="16" font-family="Arial" font-weight="bold"><tspan y="228.1875" x="642.6719">t</tspan></text>
<path transform="matrix(.70334759,0,0,.70334759,8.560764,-134.36449)" d="M480 280 520 300 480 320 440 300 480 280Z" fill="#9ee899"/>
<path transform="matrix(.70334759,0,0,.70334759,8.560764,-134.36449)" stroke-width="1" stroke-linecap="butt" stroke-miterlimit="10" stroke-linejoin="miter" fill="none" stroke="#82b366" d="M480 280 520 300 480 320 440 300 480 280Z"/>
<text xml:space="preserve" transform="matrix(.70334759 0 0 .70334759 8.209091 -134.71616)" font-size="16" font-family="Arial" font-weight="bold"><tspan y="306" x="462.65626 473.32826 487.55226">Emb</tspan></text>
<path transform="matrix(.70334759,0,0,.70334759,8.209091,-134.71616)" d="M452 720H828C828.7879 720 829.56826 720.07687 830.341 720.2305 831.11386 720.3843 831.8642 720.6119 832.59219 720.9134 833.32009 721.21499 834.0116 721.5846 834.66677 722.0223 835.3219 722.4601 835.92807 722.9575 836.4852 723.5147 837.04238 724.0719 837.5398 724.678 837.9775 725.33309 838.4153 725.9882 838.7849 726.67977 839.0864 727.4077 839.388 728.1357 839.6156 728.8861 839.76937 729.6589 839.9231 730.4317 840 731.2121 840 732V788C840 788.7879 839.9231 789.56826 839.76937 790.341 839.6156 791.1138 839.388 791.86416 839.0865 792.5921 838.785 793.32009 838.4153 794.0116 837.9775 794.66677 837.5398 795.3219 837.04238 795.92807 836.4852 796.4852 835.92807 797.04238 835.3219 797.5398 834.66677 797.97756 834.0116 798.4153 833.32009 798.7849 832.59219 799.0864 831.8642 799.388 831.11386 799.6156 830.341 799.76937 829.56826 799.9231 828.7879 799.99996 828 800H452C451.21208 799.99996 450.4317 799.9231 449.6589 799.76937 448.8861 799.6156 448.1357 799.388 447.40776 799.0864 446.67979 798.7849 445.98823 798.4153 445.3331 797.9776 444.67796 797.5398 444.0718 797.04238 443.51469 796.4852 442.95753 795.92807 442.46006 795.3219 442.0223 794.66677 441.58457 794.0116 441.21495 793.32009 440.9134 792.5921 440.61186 791.86416 440.38426 791.1138 440.23054 790.341 440.0768 789.56826 439.99998 788.7879 440 788V732C439.99998 731.2121 440.0768 730.4317 440.2305 729.6589 440.38423 728.8861 440.61186 728.1357 440.91337 727.4077 441.2149 726.67977 441.58454 725.9882 442.0223 725.33309 442.46006 724.678 442.95753 724.0719 443.51469 723.5147 444.0718 722.9575 444.67796 722.4601 445.3331 722.0223 445.98823 721.5846 446.67979 721.21499 447.40776 720.9134 448.1357 720.6119 448.8861 720.3843 449.6589 720.2305 450.4317 720.07687 451.21208 720 452 720Z" fill="#f0cc87"/>
<path transform="matrix(.70334759,0,0,.70334759,8.209091,-134.71616)" stroke-width="2" stroke-linecap="butt" stroke-miterlimit="4" stroke-linejoin="miter" fill="none" stroke="#e68800" d="M452 720H828C828.7879 720 829.56826 720.07687 830.341 720.2305 831.11386 720.3843 831.8642 720.6119 832.59219 720.9134 833.32009 721.21499 834.0116 721.5846 834.66677 722.0223 835.3219 722.4601 835.92807 722.9575 836.4852 723.5147 837.04238 724.0719 837.5398 724.678 837.9775 725.33309 838.4153 725.9882 838.7849 726.67977 839.0864 727.4077 839.388 728.1357 839.6156 728.8861 839.76937 729.6589 839.9231 730.4317 840 731.2121 840 732V788C840 788.7879 839.9231 789.56826 839.76937 790.341 839.6156 791.1138 839.388 791.86416 839.0865 792.5921 838.785 793.32009 838.4153 794.0116 837.9775 794.66677 837.5398 795.3219 837.04238 795.92807 836.4852 796.4852 835.92807 797.04238 835.3219 797.5398 834.66677 797.97756 834.0116 798.4153 833.32009 798.7849 832.59219 799.0864 831.8642 799.388 831.11386 799.6156 830.341 799.76937 829.56826 799.9231 828.7879 799.99996 828 800H452C451.21208 799.99996 450.4317 799.9231 449.6589 799.76937 448.8861 799.6156 448.1357 799.388 447.40776 799.0864 446.67979 798.7849 445.98823 798.4153 445.3331 797.9776 444.67796 797.5398 444.0718 797.04238 443.51469 796.4852 442.95753 795.92807 442.46006 795.3219 442.0223 794.66677 441.58457 794.0116 441.21495 793.32009 440.9134 792.5921 440.61186 791.86416 440.38426 791.1138 440.23054 790.341 440.0768 789.56826 439.99998 788.7879 440 788V732C439.99998 731.2121 440.0768 730.4317 440.2305 729.6589 440.38423 728.8861 440.61186 728.1357 440.91337 727.4077 441.2149 726.67977 441.58454 725.9882 442.0223 725.33309 442.46006 724.678 442.95753 724.0719 443.51469 723.5147 444.0718 722.9575 444.67796 722.4601 445.3331 722.0223 445.98823 721.5846 446.67979 721.21499 447.40776 720.9134 448.1357 720.6119 448.8861 720.3843 449.6589 720.2305 450.4317 720.07687 451.21208 720 452 720Z"/>
<text xml:space="preserve" transform="matrix(.70334759 0 0 .70334759 8.209091 -134.71616)" font-size="16" font-family="Arial" font-weight="bold"><tspan y="766" x="542.6406 552.4166 562.1926 574.6406 579.9686 589.7446 598.6406 607.5366 616.4326 620.8806 625.3286 638.6566 647.5526 661.7766 671.5526 680.4486 684.8966 696.4486 700.8966 710.6726 719.5686 728.4646">Low-Level Mamba Blocks</tspan></text>
<path transform="matrix(.70334759,0,0,.70334759,8.560764,-134.36449)" d="M560 480H720V520H560Z" fill="#d0cee2"/>
<path transform="matrix(.70334759,0,0,.70334759,8.560764,-134.36449)" stroke-width="1" stroke-linecap="butt" stroke-miterlimit="4" stroke-linejoin="miter" fill="none" stroke="#56517e" d="M560 480H720V520H560Z"/>
<text xml:space="preserve" transform="matrix(.70334759 0 0 .70334759 8.209091 -134.71616)" font-size="16" font-family="Arial" font-weight="bold"><tspan y="506" x="574.6406 584.4166 588.8646 598.6406 607.5366 616.4326 622.6566 627.1046 637.7766 644.0006 653.7766 658.2246 667.1206 676.0166 681.3446 685.7926 695.5686">Linear Projection</tspan></text>
<path transform="matrix(.70334759,0,0,.70334759,8.560764,-134.36449)" d="M440 560H520V600H440Z" fill="#9ee899"/>
<path transform="matrix(.70334759,0,0,.70334759,8.560764,-134.36449)" stroke-width="1" stroke-linecap="butt" stroke-miterlimit="4" stroke-linejoin="miter" fill="none" stroke="#82b366" d="M440 560H520V600H440Z"/>
<text xml:space="preserve" transform="matrix(.70334759 0 0 .70334759 8.209091 -134.71616)" font-size="16" font-family="Arial" font-weight="bold"><tspan y="584" x="464.875">S</tspan></text>
<text xml:space="preserve" transform="matrix(.70334759 0 0 .70334759 8.209091 -134.71616)" font-size="16" font-family="Arial" font-weight="bold"><tspan y="588.1875" x="475.54689 480.87489 486.20289">t-1</tspan></text>
<path transform="matrix(.70334759,0,0,.70334759,8.560764,-134.36449)" d="M520 560H600V600H520Z" fill="#a4b5fc"/>
<path transform="matrix(.70334759,0,0,.70334759,8.560764,-134.36449)" stroke-width="1" stroke-linecap="butt" stroke-miterlimit="4" stroke-linejoin="miter" fill="none" stroke="#6c8ebf" d="M520 560H600V600H520Z"/>
<text xml:space="preserve" transform="matrix(.70334759 0 0 .70334759 8.209091 -134.71616)" font-size="16" font-family="Arial" font-weight="bold"><tspan y="584" x="539.9844 550.6564">Sg</tspan></text>
<text xml:space="preserve" transform="matrix(.70334759 0 0 .70334759 8.209091 -134.71616)" font-size="16" font-family="Arial" font-weight="bold"><tspan y="588.1875" x="560.4375 565.7655 571.0935">t-1</tspan></text>
<path transform="matrix(.70334759,0,0,.70334759,8.560764,-134.36449)" d="M600 560H680V600H600Z" fill="#f89292"/>
<path transform="matrix(.70334759,0,0,.70334759,8.560764,-134.36449)" stroke-width="1" stroke-linecap="butt" stroke-miterlimit="4" stroke-linejoin="miter" fill="none" stroke="#b85450" d="M600 560H680V600H600Z"/>
<text xml:space="preserve" transform="matrix(.70334759 0 0 .70334759 8.209091 -134.71616)" font-size="16" font-family="Arial" font-weight="bold"><tspan y="584" x="624.4375">A</tspan></text>
<text xml:space="preserve" transform="matrix(.70334759 0 0 .70334759 8.209091 -134.71616)" font-size="16" font-family="Arial" font-weight="bold"><tspan y="588.1875" x="636 641.328 646.656">t-1</tspan></text>
<path transform="matrix(.70334759,0,0,.70334759,8.560764,-134.36449)" d="M680 560H760V600H680Z" fill="#9ee899"/>
<path transform="matrix(.70334759,0,0,.70334759,8.560764,-134.36449)" stroke-width="1" stroke-linecap="butt" stroke-miterlimit="4" stroke-linejoin="miter" fill="none" stroke="#82b366" d="M680 560H760V600H680Z"/>
<text xml:space="preserve" transform="matrix(.70334759 0 0 .70334759 8.209091 -134.71616)" font-size="16" font-family="Arial" font-weight="bold"><tspan y="584" x="712">S</tspan></text>
<text xml:space="preserve" transform="matrix(.70334759 0 0 .70334759 8.209091 -134.71616)" font-size="16" font-family="Arial" font-weight="bold"><tspan y="588.1875" x="722.6719">t</tspan></text>
<path transform="matrix(.70334759,0,0,.70334759,8.560764,-134.36449)" d="M760 560H840V600H760Z" fill="#a4b5fc"/>
<path transform="matrix(.70334759,0,0,.70334759,8.560764,-134.36449)" stroke-width="1" stroke-linecap="butt" stroke-miterlimit="4" stroke-linejoin="miter" fill="none" stroke="#6c8ebf" d="M760 560H840V600H760Z"/>
<text xml:space="preserve" transform="matrix(.70334759 0 0 .70334759 8.209091 -134.71616)" font-size="16" font-family="Arial" font-weight="bold"><tspan y="584" x="787.1094 797.7814">Sg</tspan></text>
<text xml:space="preserve" transform="matrix(.70334759 0 0 .70334759 8.209091 -134.71616)" font-size="16" font-family="Arial" font-weight="bold"><tspan y="588.1875" x="807.5625">t</tspan></text>
<path transform="matrix(.70334759,0,0,.70334759,8.560764,-134.36449)" d="M560 280 600 300 560 320 520 300 560 280Z" fill="#a4b5fc"/>
<path transform="matrix(.70334759,0,0,.70334759,8.560764,-134.36449)" stroke-width="1" stroke-linecap="butt" stroke-miterlimit="10" stroke-linejoin="miter" fill="none" stroke="#6c8ebf" d="M560 280 600 300 560 320 520 300 560 280Z"/>
<text xml:space="preserve" transform="matrix(.70334759 0 0 .70334759 8.209091 -134.71616)" font-size="16" font-family="Arial" font-weight="bold"><tspan y="306" x="542.65628 553.32827 567.55227">Emb</tspan></text>
<path transform="matrix(.70334759,0,0,.70334759,8.560764,-134.36449)" d="M640 280 680 300 640 320 600 300 640 280Z" fill="#9ee899"/>
<path transform="matrix(.70334759,0,0,.70334759,8.560764,-134.36449)" stroke-width="1" stroke-linecap="butt" stroke-miterlimit="10" stroke-linejoin="miter" fill="none" stroke="#82b366" d="M640 280 680 300 640 320 600 300 640 280Z"/>
<text xml:space="preserve" transform="matrix(.70334759 0 0 .70334759 8.209091 -134.71616)" font-size="16" font-family="Arial" font-weight="bold"><tspan y="306" x="622.65628 633.32827 647.55227">Emb</tspan></text>
<path transform="matrix(.70334759,0,0,.70334759,8.560764,-134.36449)" d="M480 640 520 660 480 680 440 660 480 640Z" fill="#9ee899"/>
<path transform="matrix(.70334759,0,0,.70334759,8.560764,-134.36449)" stroke-width="1" stroke-linecap="butt" stroke-miterlimit="10" stroke-linejoin="miter" fill="none" stroke="#82b366" d="M480 640 520 660 480 680 440 660 480 640Z"/>
<text xml:space="preserve" transform="matrix(.70334759 0 0 .70334759 8.209091 -134.71616)" font-size="16" font-family="Arial" font-weight="bold"><tspan y="666" x="462.65626 473.32826 487.55226">Emb</tspan></text>
<path transform="matrix(.70334759,0,0,.70334759,8.560764,-134.36449)" d="M560 640 600 660 560 680 520 660 560 640Z" fill="#a4b5fc"/>
<path transform="matrix(.70334759,0,0,.70334759,8.560764,-134.36449)" stroke-width="1" stroke-linecap="butt" stroke-miterlimit="10" stroke-linejoin="miter" fill="none" stroke="#6c8ebf" d="M560 640 600 660 560 680 520 660 560 640Z"/>
<text xml:space="preserve" transform="matrix(.70334759 0 0 .70334759 8.209091 -134.71616)" font-size="16" font-family="Arial" font-weight="bold"><tspan y="666" x="542.65628 553.32827 567.55227">Emb</tspan></text>
<path transform="matrix(.70334759,0,0,.70334759,8.560764,-134.36449)" d="M640 640 680 660 640 680 600 660 640 640Z" fill="#f89292"/>
<path transform="matrix(.70334759,0,0,.70334759,8.560764,-134.36449)" stroke-width="1" stroke-linecap="butt" stroke-miterlimit="10" stroke-linejoin="miter" fill="none" stroke="#b85450" d="M640 640 680 660 640 680 600 660 640 640Z"/>
<text xml:space="preserve" transform="matrix(.70334759 0 0 .70334759 8.209091 -134.71616)" font-size="16" font-family="Arial" font-weight="bold"><tspan y="666" x="622.65628 633.32827 647.55227">Emb</tspan></text>
<path transform="matrix(.70334759,0,0,.70334759,8.560764,-134.36449)" d="M720 640 760 660 720 680 680 660 720 640Z" fill="#9ee899"/>
<path transform="matrix(.70334759,0,0,.70334759,8.560764,-134.36449)" stroke-width="1" stroke-linecap="butt" stroke-miterlimit="10" stroke-linejoin="miter" fill="none" stroke="#82b366" d="M720 640 760 660 720 680 680 660 720 640Z"/>
<text xml:space="preserve" transform="matrix(.70334759 0 0 .70334759 8.209091 -134.71616)" font-size="16" font-family="Arial" font-weight="bold"><tspan y="666" x="702.65628 713.32827 727.55227">Emb</tspan></text>
<path transform="matrix(.70334759,0,0,.70334759,8.560764,-134.36449)" d="M800 640 840 660 800 680 760 660 800 640Z" fill="#a4b5fc"/>
<path transform="matrix(.70334759,0,0,.70334759,8.560764,-134.36449)" stroke-width="1" stroke-linecap="butt" stroke-miterlimit="10" stroke-linejoin="miter" fill="none" stroke="#6c8ebf" d="M800 640 840 660 800 680 760 660 800 640Z"/>
<text xml:space="preserve" transform="matrix(.70334759 0 0 .70334759 8.209091 -134.71616)" font-size="16" font-family="Arial" font-weight="bold"><tspan y="666" x="782.65628 793.32827 807.55227">Emb</tspan></text>
<path transform="matrix(.70334759,0,0,.70334759,8.560764,-134.36449)" d="M560 840H720V880H560Z" fill="#d0cee2"/>
<path transform="matrix(.70334759,0,0,.70334759,8.560764,-134.36449)" stroke-width="1" stroke-linecap="butt" stroke-miterlimit="4" stroke-linejoin="miter" fill="none" stroke="#56517e" d="M560 840H720V880H560Z"/>
<text xml:space="preserve" transform="matrix(.70334759 0 0 .70334759 8.209091 -134.71616)" font-size="16" font-family="Arial" font-weight="bold"><tspan y="866" x="574.6406 584.4166 588.8646 598.6406 607.5366 616.4326 622.6566 627.1046 637.7766 644.0006 653.7766 658.2246 667.1206 676.0166 681.3446 685.7926 695.5686">Linear Projection</tspan></text>
<path transform="matrix(.70334759,0,0,.70334759,8.560764,-134.36449)" d="M760 840H840V880H760Z" fill="#f89292"/>
<path transform="matrix(.70334759,0,0,.70334759,8.560764,-134.36449)" stroke-width="1" stroke-linecap="butt" stroke-miterlimit="4" stroke-linejoin="miter" fill="none" stroke="#b85450" d="M760 840H840V880H760Z"/>
<text xml:space="preserve" transform="matrix(.70334759 0 0 .70334759 8.209091 -134.71616)" font-size="16" font-family="Arial" font-weight="bold"><tspan y="864" x="791.5469">A</tspan></text>
<text xml:space="preserve" transform="matrix(.70334759 0 0 .70334759 8.209091 -134.71616)" font-size="16" font-family="Arial" font-weight="bold"><tspan y="868.1875" x="803.1094">t</tspan></text>
<path transform="matrix(.70334759,0,0,.70334759,8.560764,-134.36449)" stroke-width="1" stroke-linecap="butt" stroke-miterlimit="10" stroke-linejoin="miter" fill="none" stroke="#000000" d="M480 240V273.63"/>
<path transform="matrix(.70334759,0,0,.70334759,8.560764,-134.36449)" d="M480 278.88 476.5 271.88 480 273.63 483.5 271.88 480 278.88Z"/>
<path transform="matrix(.70334759,0,0,.70334759,8.560764,-134.36449)" stroke-width="1" stroke-linecap="butt" stroke-miterlimit="10" stroke-linejoin="miter" fill="none" stroke="#000000" d="M480 278.88 476.5 271.88 480 273.63 483.5 271.88 480 278.88Z"/>
<path transform="matrix(.70334759,0,0,.70334759,8.560764,-134.36449)" stroke-width="1" stroke-linecap="butt" stroke-miterlimit="10" stroke-linejoin="miter" fill="none" stroke="#000000" d="M560 240V273.63"/>
<path transform="matrix(.70334759,0,0,.70334759,8.560764,-134.36449)" d="M560 278.88 556.5 271.88 560 273.63 563.5 271.88 560 278.88Z"/>
<path transform="matrix(.70334759,0,0,.70334759,8.560764,-134.36449)" stroke-width="1" stroke-linecap="butt" stroke-miterlimit="10" stroke-linejoin="miter" fill="none" stroke="#000000" d="M560 278.88 556.5 271.88 560 273.63 563.5 271.88 560 278.88Z"/>
<path transform="matrix(.70334759,0,0,.70334759,8.560764,-134.36449)" stroke-width="1" stroke-linecap="butt" stroke-miterlimit="10" stroke-linejoin="miter" fill="none" stroke="#000000" d="M640 240V273.63"/>
<path transform="matrix(.70334759,0,0,.70334759,8.560764,-134.36449)" d="M640 278.88 636.5 271.88 640 273.63 643.5 271.88 640 278.88Z"/>
<path transform="matrix(.70334759,0,0,.70334759,8.560764,-134.36449)" stroke-width="1" stroke-linecap="butt" stroke-miterlimit="10" stroke-linejoin="miter" fill="none" stroke="#000000" d="M640 278.88 636.5 271.88 640 273.63 643.5 271.88 640 278.88Z"/>
<path transform="matrix(.70334759,0,0,.70334759,8.560764,-134.36449)" stroke-width="1" stroke-linecap="butt" stroke-miterlimit="10" stroke-linejoin="miter" fill="none" stroke="#000000" d="M480 320V351.63"/>
<path transform="matrix(.70334759,0,0,.70334759,8.560764,-134.36449)" d="M480 356.88 476.5 349.88 480 351.63 483.5 349.88 480 356.88Z"/>
<path transform="matrix(.70334759,0,0,.70334759,8.560764,-134.36449)" stroke-width="1" stroke-linecap="butt" stroke-miterlimit="10" stroke-linejoin="miter" fill="none" stroke="#000000" d="M480 356.88 476.5 349.88 480 351.63 483.5 349.88 480 356.88Z"/>
<path transform="matrix(.70334759,0,0,.70334759,8.560764,-134.36449)" stroke-width="1" stroke-linecap="butt" stroke-miterlimit="10" stroke-linejoin="miter" fill="none" stroke="#000000" d="M560 320V351.63"/>
<path transform="matrix(.70334759,0,0,.70334759,8.560764,-134.36449)" d="M560 356.88 556.5 349.88 560 351.63 563.5 349.88 560 356.88Z"/>
<path transform="matrix(.70334759,0,0,.70334759,8.560764,-134.36449)" stroke-width="1" stroke-linecap="butt" stroke-miterlimit="10" stroke-linejoin="miter" fill="none" stroke="#000000" d="M560 356.88 556.5 349.88 560 351.63 563.5 349.88 560 356.88Z"/>
<path transform="matrix(.70334759,0,0,.70334759,8.560764,-134.36449)" stroke-width="1" stroke-linecap="butt" stroke-miterlimit="10" stroke-linejoin="miter" fill="none" stroke="#000000" d="M639.88 320V351.63"/>
<path transform="matrix(.70334759,0,0,.70334759,8.560764,-134.36449)" d="M639.88 356.88 636.38 349.88 639.88 351.63 643.38 349.88 639.88 356.88Z"/>
<path transform="matrix(.70334759,0,0,.70334759,8.560764,-134.36449)" stroke-width="1" stroke-linecap="butt" stroke-miterlimit="10" stroke-linejoin="miter" fill="none" stroke="#000000" d="M639.88 356.88 636.38 349.88 639.88 351.63 643.38 349.88 639.88 356.88Z"/>
<path transform="matrix(.70334759,0,0,.70334759,8.560764,-134.36449)" stroke-width="1" stroke-linecap="butt" stroke-miterlimit="10" stroke-linejoin="miter" fill="none" stroke="#000000" d="M640 440V473.63"/>
<path transform="matrix(.70334759,0,0,.70334759,8.560764,-134.36449)" d="M640 478.88 636.5 471.88 640 473.63 643.5 471.88 640 478.88Z"/>
<path transform="matrix(.70334759,0,0,.70334759,8.560764,-134.36449)" stroke-width="1" stroke-linecap="butt" stroke-miterlimit="10" stroke-linejoin="miter" fill="none" stroke="#000000" d="M640 478.88 636.5 471.88 640 473.63 643.5 471.88 640 478.88Z"/>
<path transform="matrix(.70334759,0,0,.70334759,8.560764,-134.36449)" stroke-width="1" stroke-linecap="butt" stroke-miterlimit="10" stroke-linejoin="miter" fill="none" stroke="#000000" d="M720 500H800V553.63"/>
<path transform="matrix(.70334759,0,0,.70334759,8.560764,-134.36449)" d="M800 558.88 796.5 551.88 800 553.63 803.5 551.88 800 558.88Z"/>
<path transform="matrix(.70334759,0,0,.70334759,8.560764,-134.36449)" stroke-width="1" stroke-linecap="butt" stroke-miterlimit="10" stroke-linejoin="miter" fill="none" stroke="#000000" d="M800 558.88 796.5 551.88 800 553.63 803.5 551.88 800 558.88Z"/>
<path transform="matrix(.70334759,0,0,.70334759,8.560764,-134.36449)" stroke-width="1" stroke-linecap="butt" stroke-miterlimit="10" stroke-linejoin="miter" fill="none" stroke="#000000" d="M480 600V633.63"/>
<path transform="matrix(.70334759,0,0,.70334759,8.560764,-134.36449)" d="M480 638.88 476.5 631.88 480 633.63 483.5 631.88 480 638.88Z"/>
<path transform="matrix(.70334759,0,0,.70334759,8.560764,-134.36449)" stroke-width="1" stroke-linecap="butt" stroke-miterlimit="10" stroke-linejoin="miter" fill="none" stroke="#000000" d="M480 638.88 476.5 631.88 480 633.63 483.5 631.88 480 638.88Z"/>
<path transform="matrix(.70334759,0,0,.70334759,8.560764,-134.36449)" stroke-width="1" stroke-linecap="butt" stroke-miterlimit="10" stroke-linejoin="miter" fill="none" stroke="#000000" d="M560 600V633.63"/>
<path transform="matrix(.70334759,0,0,.70334759,8.560764,-134.36449)" d="M560 638.88 556.5 631.88 560 633.63 563.5 631.88 560 638.88Z"/>
<path transform="matrix(.70334759,0,0,.70334759,8.560764,-134.36449)" stroke-width="1" stroke-linecap="butt" stroke-miterlimit="10" stroke-linejoin="miter" fill="none" stroke="#000000" d="M560 638.88 556.5 631.88 560 633.63 563.5 631.88 560 638.88Z"/>
<path transform="matrix(.70334759,0,0,.70334759,8.560764,-134.36449)" stroke-width="1" stroke-linecap="butt" stroke-miterlimit="10" stroke-linejoin="miter" fill="none" stroke="#000000" d="M640 600V633.63"/>
<path transform="matrix(.70334759,0,0,.70334759,8.560764,-134.36449)" d="M640 638.88 636.5 631.88 640 633.63 643.5 631.88 640 638.88Z"/>
<path transform="matrix(.70334759,0,0,.70334759,8.560764,-134.36449)" stroke-width="1" stroke-linecap="butt" stroke-miterlimit="10" stroke-linejoin="miter" fill="none" stroke="#000000" d="M640 638.88 636.5 631.88 640 633.63 643.5 631.88 640 638.88Z"/>
<path transform="matrix(.70334759,0,0,.70334759,8.560764,-134.36449)" stroke-width="1" stroke-linecap="butt" stroke-miterlimit="10" stroke-linejoin="miter" fill="none" stroke="#000000" d="M720 600V633.63"/>
<path transform="matrix(.70334759,0,0,.70334759,8.560764,-134.36449)" d="M720 638.88 716.5 631.88 720 633.63 723.5 631.88 720 638.88Z"/>
<path transform="matrix(.70334759,0,0,.70334759,8.560764,-134.36449)" stroke-width="1" stroke-linecap="butt" stroke-miterlimit="10" stroke-linejoin="miter" fill="none" stroke="#000000" d="M720 638.88 716.5 631.88 720 633.63 723.5 631.88 720 638.88Z"/>
<path transform="matrix(.70334759,0,0,.70334759,8.560764,-134.36449)" stroke-width="1" stroke-linecap="butt" stroke-miterlimit="10" stroke-linejoin="miter" fill="none" stroke="#000000" d="M800 600V633.63"/>
<path transform="matrix(.70334759,0,0,.70334759,8.560764,-134.36449)" d="M800 638.88 796.5 631.88 800 633.63 803.5 631.88 800 638.88Z"/>
<path transform="matrix(.70334759,0,0,.70334759,8.560764,-134.36449)" stroke-width="1" stroke-linecap="butt" stroke-miterlimit="10" stroke-linejoin="miter" fill="none" stroke="#000000" d="M800 638.88 796.5 631.88 800 633.63 803.5 631.88 800 638.88Z"/>
<path transform="matrix(.70334759,0,0,.70334759,8.560764,-134.36449)" stroke-width="1" stroke-linecap="butt" stroke-miterlimit="10" stroke-linejoin="miter" fill="none" stroke="#000000" d="M479.86 680V711.63"/>
<path transform="matrix(.70334759,0,0,.70334759,8.560764,-134.36449)" d="M479.86 716.88 476.36 709.88 479.86 711.63 483.36 709.88 479.86 716.88Z"/>
<path transform="matrix(.70334759,0,0,.70334759,8.560764,-134.36449)" stroke-width="1" stroke-linecap="butt" stroke-miterlimit="10" stroke-linejoin="miter" fill="none" stroke="#000000" d="M479.86 716.88 476.36 709.88 479.86 711.63 483.36 709.88 479.86 716.88Z"/>
<path transform="matrix(.70334759,0,0,.70334759,8.560764,-134.36449)" stroke-width="1" stroke-linecap="butt" stroke-miterlimit="10" stroke-linejoin="miter" fill="none" stroke="#000000" d="M560 680V711.63"/>
<path transform="matrix(.70334759,0,0,.70334759,8.560764,-134.36449)" d="M560 716.88 556.5 709.88 560 711.63 563.5 709.88 560 716.88Z"/>
<path transform="matrix(.70334759,0,0,.70334759,8.560764,-134.36449)" stroke-width="1" stroke-linecap="butt" stroke-miterlimit="10" stroke-linejoin="miter" fill="none" stroke="#000000" d="M560 716.88 556.5 709.88 560 711.63 563.5 709.88 560 716.88Z"/>
<path transform="matrix(.70334759,0,0,.70334759,8.560764,-134.36449)" stroke-width="1" stroke-linecap="butt" stroke-miterlimit="10" stroke-linejoin="miter" fill="none" stroke="#000000" d="M639.86 680V711.63"/>
<path transform="matrix(.70334759,0,0,.70334759,8.560764,-134.36449)" d="M639.86 716.88 636.36 709.88 639.86 711.63 643.36 709.88 639.86 716.88Z"/>
<path transform="matrix(.70334759,0,0,.70334759,8.560764,-134.36449)" stroke-width="1" stroke-linecap="butt" stroke-miterlimit="10" stroke-linejoin="miter" fill="none" stroke="#000000" d="M639.86 716.88 636.36 709.88 639.86 711.63 643.36 709.88 639.86 716.88Z"/>
<path transform="matrix(.70334759,0,0,.70334759,8.560764,-134.36449)" stroke-width="1" stroke-linecap="butt" stroke-miterlimit="10" stroke-linejoin="miter" fill="none" stroke="#000000" d="M719.86 680V711.63"/>
<path transform="matrix(.70334759,0,0,.70334759,8.560764,-134.36449)" d="M719.86 716.88 716.36 709.88 719.86 711.63 723.36 709.88 719.86 716.88Z"/>
<path transform="matrix(.70334759,0,0,.70334759,8.560764,-134.36449)" stroke-width="1" stroke-linecap="butt" stroke-miterlimit="10" stroke-linejoin="miter" fill="none" stroke="#000000" d="M719.86 716.88 716.36 709.88 719.86 711.63 723.36 709.88 719.86 716.88Z"/>
<path transform="matrix(.70334759,0,0,.70334759,8.560764,-134.36449)" stroke-width="1" stroke-linecap="butt" stroke-miterlimit="10" stroke-linejoin="miter" fill="none" stroke="#000000" d="M799.86 680V711.63"/>
<path transform="matrix(.70334759,0,0,.70334759,8.560764,-134.36449)" d="M799.86 716.88 796.36 709.88 799.86 711.63 803.36 709.88 799.86 716.88Z"/>
<path transform="matrix(.70334759,0,0,.70334759,8.560764,-134.36449)" stroke-width="1" stroke-linecap="butt" stroke-miterlimit="10" stroke-linejoin="miter" fill="none" stroke="#000000" d="M799.86 716.88 796.36 709.88 799.86 711.63 803.36 709.88 799.86 716.88Z"/>
<path transform="matrix(.70334759,0,0,.70334759,8.560764,-134.36449)" stroke-width="1" stroke-linecap="butt" stroke-miterlimit="10" stroke-linejoin="miter" fill="none" stroke="#000000" d="M640 800V833.63"/>
<path transform="matrix(.70334759,0,0,.70334759,8.560764,-134.36449)" d="M640 838.88 636.5 831.88 640 833.63 643.5 831.88 640 838.88Z"/>
<path transform="matrix(.70334759,0,0,.70334759,8.560764,-134.36449)" stroke-width="1" stroke-linecap="butt" stroke-miterlimit="10" stroke-linejoin="miter" fill="none" stroke="#000000" d="M640 838.88 636.5 831.88 640 833.63 643.5 831.88 640 838.88Z"/>
<path transform="matrix(.70334759,0,0,.70334759,8.560764,-134.36449)" stroke-width="1" stroke-linecap="butt" stroke-miterlimit="10" stroke-linejoin="miter" fill="none" stroke="#000000" d="M720 860H753.63"/>
<path transform="matrix(.70334759,0,0,.70334759,8.560764,-134.36449)" d="M758.88 860 751.88 863.5 753.63 860 751.88 856.5 758.88 860Z"/>
<path transform="matrix(.70334759,0,0,.70334759,8.560764,-134.36449)" stroke-width="1" stroke-linecap="butt" stroke-miterlimit="10" stroke-linejoin="miter" fill="none" stroke="#000000" d="M758.88 860 751.88 863.5 753.63 860 751.88 856.5 758.88 860Z"/>
<path transform="matrix(.70334759,0,0,.70334759,8.209091,-134.71616)" d="M12 500H388C388.78794 500.00004 389.56828 500.07688 390.34107 500.2306 391.11384 500.3843 391.8642 500.6119 392.59217 500.91343 393.32014 501.21495 394.01167 501.58457 394.66679 502.0223 395.32197 502.46006 395.9281 502.9575 396.48527 503.51466 397.04243 504.07179 397.53987 504.67793 397.97764 505.33308 398.41535 505.9882 398.78498 506.67976 399.08653 507.4077 399.38804 508.13566 399.61567 508.88606 399.76939 509.65885 399.9231 510.43165 399.99998 511.21205 400 512V568C399.99998 568.7879 399.9231 569.56826 399.76939 570.341 399.61564 571.11386 399.388 571.8642 399.0865 572.59219 398.78495 573.3201 398.4153 574.01168 397.9776 574.66677 397.53987 575.3219 397.04243 575.92807 396.48527 576.4852 395.9281 577.04238 395.32197 577.5398 394.6668 577.9776 394.0117 578.41537 393.32014 578.785 392.59217 579.0865 391.8642 579.388 391.11384 579.61569 390.3411 579.7694 389.5683 579.92318 388.78794 580 388 580H12C11.2120699 580 10.431707 579.92318 9.6589159 579.7694 8.886124 579.61569 8.135752 579.388 7.4077985 579.0865 6.6798446 578.785 5.9882977 578.41537 5.333157 577.97769 4.6780159 577.53988 4.07187 577.04238 3.5147186 576.4852 2.9575668 575.92807 2.4601155 575.3219 2.0223644 574.66677 1.5846133 574.01168 1.2149737 573.3201 .91344556 572.59219 .6119173 571.8642 .38429434 571.11386 .2305766 570.341 .07685886 569.56826 0 568.7879 0 568V512C0 511.21205 .07685886 510.43165 .2305766 509.65885 .38429434 508.88606 .6119173 508.13566 .91344556 507.4077 1.2149737 506.67976 1.5846133 505.9882 2.0223644 505.33308 2.4601155 504.67793 2.9575668 504.07179 3.5147186 503.51466 4.07187 502.9575 4.6780159 502.46006 5.333157 502.0223 5.9882977 501.58457 6.6798446 501.21495 7.4077985 500.91343 8.135752 500.6119 8.886125 500.38429 9.658916 500.23057 10.431708 500.07688 11.2120699 500.00004 12 500Z" fill="#f0cc87"/>
<path transform="matrix(.70334759,0,0,.70334759,8.209091,-134.71616)" stroke-width="2" stroke-linecap="butt" stroke-miterlimit="4" stroke-linejoin="miter" fill="none" stroke="#e68800" d="M12 500H388C388.78794 500.00004 389.56828 500.07688 390.34107 500.2306 391.11384 500.3843 391.8642 500.6119 392.59217 500.91343 393.32014 501.21495 394.01167 501.58457 394.66679 502.0223 395.32197 502.46006 395.9281 502.9575 396.48527 503.51466 397.04243 504.07179 397.53987 504.67793 397.97764 505.33308 398.41535 505.9882 398.78498 506.67976 399.08653 507.4077 399.38804 508.13566 399.61567 508.88606 399.76939 509.65885 399.9231 510.43165 399.99998 511.21205 400 512V568C399.99998 568.7879 399.9231 569.56826 399.76939 570.341 399.61564 571.11386 399.388 571.8642 399.0865 572.59219 398.78495 573.3201 398.4153 574.01168 397.9776 574.66677 397.53987 575.3219 397.04243 575.92807 396.48527 576.4852 395.9281 577.04238 395.32197 577.5398 394.6668 577.9776 394.0117 578.41537 393.32014 578.785 392.59217 579.0865 391.8642 579.388 391.11384 579.61569 390.3411 579.7694 389.5683 579.92318 388.78794 580 388 580H12C11.2120699 580 10.431707 579.92318 9.6589159 579.7694 8.886124 579.61569 8.135752 579.388 7.4077985 579.0865 6.6798446 578.785 5.9882977 578.41537 5.333157 577.97769 4.6780159 577.53988 4.07187 577.04238 3.5147186 576.4852 2.9575668 575.92807 2.4601155 575.3219 2.0223644 574.66677 1.5846133 574.01168 1.2149737 573.3201 .91344556 572.59219 .6119173 571.8642 .38429434 571.11386 .2305766 570.341 .07685886 569.56826 0 568.7879 0 568V512C0 511.21205 .07685886 510.43165 .2305766 509.65885 .38429434 508.88606 .6119173 508.13566 .91344556 507.4077 1.2149737 506.67976 1.5846133 505.9882 2.0223644 505.33308 2.4601155 504.67793 2.9575668 504.07179 3.5147186 503.51466 4.07187 502.9575 4.6780159 502.46006 5.333157 502.0223 5.9882977 501.58457 6.6798446 501.21495 7.4077985 500.91343 8.135752 500.6119 8.886125 500.38429 9.658916 500.23057 10.431708 500.07688 11.2120699 500.00004 12 500Z"/>
<text xml:space="preserve" transform="matrix(.70334759 0 0 .70334759 8.209091 -134.71616)" font-size="16" font-family="Arial" font-weight="bold"><tspan y="546" x="143.96875 157.29676 166.19275 180.41675 190.19275 199.08875 203.53675 215.08875 219.53675 229.31275 238.20874 247.10474">Mamba Blocks</tspan></text>
<path transform="matrix(.70334759,0,0,.70334759,8.560764,-134.36449)" d="M0 342H80V382H0Z" fill="#9ee899"/>
<path transform="matrix(.70334759,0,0,.70334759,8.560764,-134.36449)" stroke-width="1" stroke-linecap="butt" stroke-miterlimit="4" stroke-linejoin="miter" fill="none" stroke="#82b366" d="M0 342H80V382H0Z"/>
<text xml:space="preserve" transform="matrix(.70334759 0 0 .70334759 8.209091 -134.71616)" font-size="16" font-family="Arial" font-weight="bold"><tspan y="366" x="24.875">S</tspan></text>
<text xml:space="preserve" transform="matrix(.70334759 0 0 .70334759 8.209091 -134.71616)" font-size="16" font-family="Arial" font-weight="bold"><tspan y="370.1875" x="35.546876 40.874876 46.202875">t-1</tspan></text>
<path transform="matrix(.70334759,0,0,.70334759,8.560764,-134.36449)" d="M80 342H160V382H80Z" fill="#f89292"/>
<path transform="matrix(.70334759,0,0,.70334759,8.560764,-134.36449)" stroke-width="1" stroke-linecap="butt" stroke-miterlimit="4" stroke-linejoin="miter" fill="none" stroke="#b85450" d="M80 342H160V382H80Z"/>
<text xml:space="preserve" transform="matrix(.70334759 0 0 .70334759 8.209091 -134.71616)" font-size="16" font-family="Arial" font-weight="bold"><tspan y="366" x="104.4375">A</tspan></text>
<text xml:space="preserve" transform="matrix(.70334759 0 0 .70334759 8.209091 -134.71616)" font-size="16" font-family="Arial" font-weight="bold"><tspan y="370.1875" x="116 121.328 126.656009">t-1</tspan></text>
<path transform="matrix(.70334759,0,0,.70334759,8.560764,-134.36449)" d="M40 422 80 442 40 462 0 442 40 422Z" fill="#9ee899"/>
<path transform="matrix(.70334759,0,0,.70334759,8.560764,-134.36449)" stroke-width="1" stroke-linecap="butt" stroke-miterlimit="10" stroke-linejoin="miter" fill="none" stroke="#82b366" d="M40 422 80 442 40 462 0 442 40 422Z"/>
<text xml:space="preserve" transform="matrix(.70334759 0 0 .70334759 8.209091 -134.71616)" font-size="16" font-family="Arial" font-weight="bold"><tspan y="448" x="22.65625 33.32825 47.552255">Emb</tspan></text>
<path transform="matrix(.70334759,0,0,.70334759,8.560764,-134.36449)" d="M120 422 160 442 120 462 80 442 120 422Z" fill="#f89292"/>
<path transform="matrix(.70334759,0,0,.70334759,8.560764,-134.36449)" stroke-width="1" stroke-linecap="butt" stroke-miterlimit="10" stroke-linejoin="miter" fill="none" stroke="#b85450" d="M120 422 160 442 120 462 80 442 120 422Z"/>
<text xml:space="preserve" transform="matrix(.70334759 0 0 .70334759 8.209091 -134.71616)" font-size="16" font-family="Arial" font-weight="bold"><tspan y="448" x="102.65625 113.32825 127.552249">Emb</tspan></text>
<path transform="matrix(.70334759,0,0,.70334759,8.560764,-134.36449)" d="M120 620H280V660H120Z" fill="#d0cee2"/>
<path transform="matrix(.70334759,0,0,.70334759,8.560764,-134.36449)" stroke-width="1" stroke-linecap="butt" stroke-miterlimit="4" stroke-linejoin="miter" fill="none" stroke="#56517e" d="M120 620H280V660H120Z"/>
<text xml:space="preserve" transform="matrix(.70334759 0 0 .70334759 8.209091 -134.71616)" font-size="16" font-family="Arial" font-weight="bold"><tspan y="646" x="134.64063 144.41663 148.86463 158.64063 167.53662 176.43262 182.65662 187.10462 197.77661 204.00061 213.77661 218.22461 227.1206 236.0166 241.3446 245.7926 255.5686">Linear Projection</tspan></text>
<path transform="matrix(.70334759,0,0,.70334759,8.560764,-134.36449)" d="M160 700H240V740H160Z" fill="#f89292"/>
<path transform="matrix(.70334759,0,0,.70334759,8.560764,-134.36449)" stroke-width="1" stroke-linecap="butt" stroke-miterlimit="4" stroke-linejoin="miter" fill="none" stroke="#b85450" d="M160 700H240V740H160Z"/>
<text xml:space="preserve" transform="matrix(.70334759 0 0 .70334759 8.209091 -134.71616)" font-size="16" font-family="Arial" font-weight="bold"><tspan y="724" x="191.54688">A</tspan></text>
<text xml:space="preserve" transform="matrix(.70334759 0 0 .70334759 8.209091 -134.71616)" font-size="16" font-family="Arial" font-weight="bold"><tspan y="728.1875" x="203.10938">t</tspan></text>
<path transform="matrix(.70334759,0,0,.70334759,8.560764,-134.36449)" stroke-width="1" stroke-linecap="butt" stroke-miterlimit="10" stroke-linejoin="miter" fill="none" stroke="#000000" d="M40 382V415.63"/>
<path transform="matrix(.70334759,0,0,.70334759,8.560764,-134.36449)" d="M40 420.88 36.5 413.88 40 415.63 43.5 413.88 40 420.88Z"/>
<path transform="matrix(.70334759,0,0,.70334759,8.560764,-134.36449)" stroke-width="1" stroke-linecap="butt" stroke-miterlimit="10" stroke-linejoin="miter" fill="none" stroke="#000000" d="M40 420.88 36.5 413.88 40 415.63 43.5 413.88 40 420.88Z"/>
<path transform="matrix(.70334759,0,0,.70334759,8.560764,-134.36449)" stroke-width="1" stroke-linecap="butt" stroke-miterlimit="10" stroke-linejoin="miter" fill="none" stroke="#000000" d="M120 382V415.63"/>
<path transform="matrix(.70334759,0,0,.70334759,8.560764,-134.36449)" d="M120 420.88 116.5 413.88 120 415.63 123.5 413.88 120 420.88Z"/>
<path transform="matrix(.70334759,0,0,.70334759,8.560764,-134.36449)" stroke-width="1" stroke-linecap="butt" stroke-miterlimit="10" stroke-linejoin="miter" fill="none" stroke="#000000" d="M120 420.88 116.5 413.88 120 415.63 123.5 413.88 120 420.88Z"/>
<path transform="matrix(.70334759,0,0,.70334759,8.560764,-134.36449)" stroke-width="1" stroke-linecap="butt" stroke-miterlimit="10" stroke-linejoin="miter" fill="none" stroke="#000000" d="M39.86 462V493.63"/>
<path transform="matrix(.70334759,0,0,.70334759,8.560764,-134.36449)" d="M39.86 498.88 36.36 491.88 39.86 493.63 43.36 491.88 39.86 498.88Z"/>
<path transform="matrix(.70334759,0,0,.70334759,8.560764,-134.36449)" stroke-width="1" stroke-linecap="butt" stroke-miterlimit="10" stroke-linejoin="miter" fill="none" stroke="#000000" d="M39.86 498.88 36.36 491.88 39.86 493.63 43.36 491.88 39.86 498.88Z"/>
<path transform="matrix(.70334759,0,0,.70334759,8.560764,-134.36449)" stroke-width="1" stroke-linecap="butt" stroke-miterlimit="10" stroke-linejoin="miter" fill="none" stroke="#000000" d="M119.86 462V493.63"/>
<path transform="matrix(.70334759,0,0,.70334759,8.560764,-134.36449)" d="M119.86 498.88 116.36 491.88 119.86 493.63 123.36 491.88 119.86 498.88Z"/>
<path transform="matrix(.70334759,0,0,.70334759,8.560764,-134.36449)" stroke-width="1" stroke-linecap="butt" stroke-miterlimit="10" stroke-linejoin="miter" fill="none" stroke="#000000" d="M119.86 498.88 116.36 491.88 119.86 493.63 123.36 491.88 119.86 498.88Z"/>
<path transform="matrix(.70334759,0,0,.70334759,8.560764,-134.36449)" stroke-width="1" stroke-linecap="butt" stroke-miterlimit="10" stroke-linejoin="miter" fill="none" stroke="#000000" d="M200 580V613.63"/>
<path transform="matrix(.70334759,0,0,.70334759,8.560764,-134.36449)" d="M200 618.88 196.5 611.88 200 613.63 203.5 611.88 200 618.88Z"/>
<path transform="matrix(.70334759,0,0,.70334759,8.560764,-134.36449)" stroke-width="1" stroke-linecap="butt" stroke-miterlimit="10" stroke-linejoin="miter" fill="none" stroke="#000000" d="M200 618.88 196.5 611.88 200 613.63 203.5 611.88 200 618.88Z"/>
<path transform="matrix(.70334759,0,0,.70334759,8.560764,-134.36449)" stroke-width="1" stroke-linecap="butt" stroke-miterlimit="10" stroke-linejoin="miter" fill="none" stroke="#000000" d="M200 660V693.63"/>
<path transform="matrix(.70334759,0,0,.70334759,8.560764,-134.36449)" d="M200 698.88 196.5 691.88 200 693.63 203.5 691.88 200 698.88Z"/>
<path transform="matrix(.70334759,0,0,.70334759,8.560764,-134.36449)" stroke-width="1" stroke-linecap="butt" stroke-miterlimit="10" stroke-linejoin="miter" fill="none" stroke="#000000" d="M200 698.88 196.5 691.88 200 693.63 203.5 691.88 200 698.88Z"/>
<path transform="matrix(.70334759,0,0,.70334759,8.209091,-134.71616)" d="M419 880V878H421V880M419 872V870H421V872M419 864V862H421V864M419 856V854H421V856M419 848V846H421V848M419 840V838H421V840M419 832V830H421V832M419 824V822H421V824M419 816V814H421V816M419 808V806H421V808M419 800V798H421V800M419 792V790H421V792M419 784V782H421V784M419 776V774H421V776M419 768V766H421V768M419 760V758H421V760M419 752V750H421V752M419 744V742H421V744M419 736V734H421V736M419 728V726H421V728M419 720V718H421V720M419 712V710H421V712M419 704V702H421V704M419 696V694H421V696M419 688V686H421V688M419 680V678H421V680M419 672V670H421V672M419 664V662H421V664M419 656V654H421V656M419 648V646H421V648M419 640V638H421V640M419 632V630H421V632M419 624V622H421V624M419 616V614H421V616M419 608V606H421V608M419 600V598H421V600M419 592V590H421V592M419 584V582H421V584M419 576V574H421V576M419 568V566H421V568M419 560V558H421V560M419 552V550H421V552M419 544V542H421V544M419 536V534H421V536M419 528V526H421V528M419 520V518H421V520M419 512V510H421V512M419 504V502H421V504M419 496V494H421V496M419 488V486H421V488M419 480V478H421V480M419 472V470H421V472M419 464V462H421V464M419 456V454H421V456M419 448V446H421V448M419 440V438H421V440M419 432V430H421V432M419 424V422H421V424M419 416V414H421V416M419 408V406H421V408M419 400V398H421V400M419 392V390H421V392M419 384V382H421V384M419 376V374H421V376M419 368V366H421V368M419 360V358H421V360M419 352V350H421V352M419 344V342H421V344M419 336V334H421V336M419 328V326H421V328M419 320V318H421V320M419 312V310H421V312M419 304V302H421V304M419 296V294H421V296M419 288V286H421V288M419 280V278H421V280M419 272V270H421V272M419 264V262H421V264M419 256V254H421V256M419 248V246H421V248M419 240V238H421V240M419 232V230H421V232M419 224V222H421V224M419 216V214H421V216M419 208V206H421V208"/>
<path transform="matrix(.70334759,0,0,.70334759,8.560764,-134.36449)" d="M160 342H240V382H160Z" fill="#9ee899"/>
<path transform="matrix(.70334759,0,0,.70334759,8.560764,-134.36449)" stroke-width="1" stroke-linecap="butt" stroke-miterlimit="4" stroke-linejoin="miter" fill="none" stroke="#82b366" d="M160 342H240V382H160Z"/>
<text xml:space="preserve" transform="matrix(.70334759 0 0 .70334759 8.209091 -134.71616)" font-size="16" font-family="Arial" font-weight="bold"><tspan y="366" x="192">S</tspan></text>
<text xml:space="preserve" transform="matrix(.70334759 0 0 .70334759 8.209091 -134.71616)" font-size="16" font-family="Arial" font-weight="bold"><tspan y="370.1875" x="202.67188">t</tspan></text>
<path transform="matrix(.70334759,0,0,.70334759,8.560764,-134.36449)" d="M200 422 240 442 200 462 160 442 200 422Z" fill="#9ee899"/>
<path transform="matrix(.70334759,0,0,.70334759,8.560764,-134.36449)" stroke-width="1" stroke-linecap="butt" stroke-miterlimit="10" stroke-linejoin="miter" fill="none" stroke="#82b366" d="M200 422 240 442 200 462 160 442 200 422Z"/>
<text xml:space="preserve" transform="matrix(.70334759 0 0 .70334759 8.209091 -134.71616)" font-size="16" font-family="Arial" font-weight="bold"><tspan y="448" x="182.65625 193.32825 207.55225">Emb</tspan></text>
<path transform="matrix(.70334759,0,0,.70334759,8.560764,-134.36449)" stroke-width="1" stroke-linecap="butt" stroke-miterlimit="10" stroke-linejoin="miter" fill="none" stroke="#000000" d="M200 382V415.63"/>
<path transform="matrix(.70334759,0,0,.70334759,8.560764,-134.36449)" d="M200 420.88 196.5 413.88 200 415.63 203.5 413.88 200 420.88Z"/>
<path transform="matrix(.70334759,0,0,.70334759,8.560764,-134.36449)" stroke-width="1" stroke-linecap="butt" stroke-miterlimit="10" stroke-linejoin="miter" fill="none" stroke="#000000" d="M200 420.88 196.5 413.88 200 415.63 203.5 413.88 200 420.88Z"/>
<path transform="matrix(.70334759,0,0,.70334759,8.560764,-134.36449)" stroke-width="1" stroke-linecap="butt" stroke-miterlimit="10" stroke-linejoin="miter" fill="none" stroke="#000000" d="M199.88 462V493.63"/>
<path transform="matrix(.70334759,0,0,.70334759,8.560764,-134.36449)" d="M199.88 498.88 196.38 491.88 199.88 493.63 203.38 491.88 199.88 498.88Z"/>
<path transform="matrix(.70334759,0,0,.70334759,8.560764,-134.36449)" stroke-width="1" stroke-linecap="butt" stroke-miterlimit="10" stroke-linejoin="miter" fill="none" stroke="#000000" d="M199.88 498.88 196.38 491.88 199.88 493.63 203.38 491.88 199.88 498.88Z"/>
</g>
</svg>
