<svg xmlns="http://www.w3.org/2000/svg" xmlns:xlink="http://www.w3.org/1999/xlink" xmlns:inkscape="http://www.inkscape.org/namespaces/inkscape" version="1.1" width="291.12" height="234.95999" viewBox="0 0 291.12 234.95999">
<defs>
<clipPath id="clip_1">
<path transform="matrix(.24,0,0,.24,0,0)" d="M0 0H1212.5V974.8139H0Z" clip-rule="evenodd"/>
</clipPath>
</defs>
<g clip-path="url(#clip_1)">
<path transform="matrix(.72208437,0,0,.72208437,0,0)" d="M231 81H401V321H231Z" fill="#ffffff"/>
<path transform="matrix(.72208437,0,0,.72208437,0,0)" d="M243 80H249V82H243V80ZM255 80H261V82H255V80ZM267 80H273V82H267V80ZM279 80H285V82H279V80ZM291 80H297V82H291V80ZM303 80H309V82H303V80ZM315 80H321V82H315V80ZM327 80H333V82H327V80ZM339 80H345V82H339V80ZM351 80H357V82H351V80ZM363 80H369V82H363V80ZM375 80H381V82H375V80ZM387 80H393V82H387V80ZM399 80H402V85H400V81H401V82H399V80ZM402 91V97H400V91H402ZM402 103V109H400V103H402ZM402 115V121H400V115H402ZM402 127V133H400V127H402ZM402 139V145H400V139H402ZM402 151V157H400V151H402ZM402 163V169H400V163H402ZM402 175V181H400V175H402ZM402 187V193H400V187H402ZM402 199V205H400V199H402ZM402 211V217H400V211H402ZM402 223V229H400V223H402ZM402 235V241H400V235H402ZM402 247V253H400V247H402ZM402 259V265H400V259H402ZM402 271V277H400V271H402ZM402 283V289H400V283H402ZM402 295V301H400V295H402ZM402 307V313H400V307H402ZM402 319V322H397V320H401V321H400V319H402ZM391 322H385V320H391V322ZM379 322H373V320H379V322ZM367 322H361V320H367V322ZM355 322H349V320H355V322ZM343 322H337V320H343V322ZM331 322H325V320H331V322ZM319 322H313V320H319V322ZM307 322H301V320H307V322ZM295 322H289V320H295V322ZM283 322H277V320H283V322ZM271 322H265V320H271V322ZM259 322H253V320H259V322ZM247 322H241V320H247V322ZM235 322H230V319H232V321H231V320H235V322ZM230 313V307H232V313H230ZM230 301V295H232V301H230ZM230 289V283H232V289H230ZM230 277V271H232V277H230ZM230 265V259H232V265H230ZM230 253V247H232V253H230ZM230 241V235H232V241H230ZM230 229V223H232V229H230ZM230 217V211H232V217H230ZM230 205V199H232V205H230ZM230 193V187H232V193H230ZM230 181V175H232V181H230ZM230 169V163H232V169H230ZM230 157V151H232V157H230ZM230 145V139H232V145H230ZM230 133V127H232V133H230ZM230 121V115H232V121H230ZM230 109V103H232V109H230ZM230 97V91H232V97H230ZM230 85V80H237V82H231V81H232V85H230Z"/>
<path transform="matrix(.72208437,0,0,.72208437,0,0)" d="M1 81H231V321H1Z" fill="#ffffff"/>
<path transform="matrix(.72208437,0,0,.72208437,0,0)" d="M13 80H19V82H13V80ZM25 80H31V82H25V80ZM37 80H43V82H37V80ZM49 80H55V82H49V80ZM61 80H67V82H61V80ZM73 80H79V82H73V80ZM85 80H91V82H85V80ZM97 80H103V82H97V80ZM109 80H115V82H109V80ZM121 80H127.00001V82H121V80ZM133 80H139V82H133V80ZM145 80H151V82H145V80ZM157 80H163V82H157V80ZM169 80H175V82H169V80ZM181 80H187V82H181V80ZM193 80H199V82H193V80ZM205 80H211V82H205V80ZM217 80H223V82H217V80ZM229 80H232V85H230V81H231V82H229V80ZM232 91V97H230V91H232ZM232 103V109H230V103H232ZM232 115V121H230V115H232ZM232 127V133H230V127H232ZM232 139V145H230V139H232ZM232 151V157H230V151H232ZM232 163V169H230V163H232ZM232 175V181H230V175H232ZM232 187V193H230V187H232ZM232 199V205H230V199H232ZM232 211V217H230V211H232ZM232 223V229H230V223H232ZM232 235V241H230V235H232ZM232 247V253H230V247H232ZM232 259V265H230V259H232ZM232 271V277H230V271H232ZM232 283V289H230V283H232ZM232 295V301H230V295H232ZM232 307V313H230V307H232ZM232 319V322H227V320H231V321H230V319H232ZM221 322H215V320H221V322ZM209 322H203V320H209V322ZM197 322H191V320H197V322ZM185 322H179V320H185V322ZM173 322H167V320H173V322ZM161 322H155V320H161V322ZM149 322H143V320H149V322ZM137 322H131V320H137V322ZM125 322H119V320H125V322ZM113 322H107V320H113V322ZM101 322H95V320H101V322ZM89 322H83V320H89V322ZM77 322H71V320H77V322ZM65 322H59V320H65V322ZM53 322H47V320H53V322ZM41 322H35V320H41V322ZM29 322H23V320H29V322ZM17 322H11V320H17V322ZM5 322H0V319H2V321H1V320H5V322ZM0 313V307H2V313H0ZM0 301V295H2V301H0ZM0 289V283H2V289H0ZM0 277V271H2V277H0ZM0 265V259H2V265H0ZM0 253V247H2V253H0ZM0 241V235H2V241H0ZM0 229V223H2V229H0ZM0 217V211H2V217H0ZM0 205V199H2V205H0ZM0 193V187H2V193H0ZM0 181V175H2V181H0ZM0 169V163H2V169H0ZM0 157V151H2V157H0ZM0 145V139H2V145H0ZM0 133V127H2V133H0ZM0 121V115H2V121H0ZM0 109V103H2V109H0ZM0 97V91H2V97H0ZM0 85V80H7V82H1V81H2V85H0Z"/>
<path transform="matrix(.72208437,0,0,.72208437,.36104218,.36104218)" d="M11 41 31 1H91L71 41H11Z" fill="#f8cecc"/>
<path transform="matrix(.72208437,0,0,.72208437,.36104218,.36104218)" stroke-width="1" stroke-linecap="butt" stroke-miterlimit="10" stroke-linejoin="miter" fill="none" stroke="#b85450" d="M11 41 31 1H91L71 41H11Z"/>
<text xml:space="preserve" transform="matrix(.72208437 0 0 .72208437 0 0)" font-size="12" font-family="Arial" font-weight="bold"><tspan y="18" x="36.65625 43.32825 50.66025 53.996255 61.328256">Joint</tspan></text>
<text xml:space="preserve" transform="matrix(.72208437 0 0 .72208437 0 0)" font-size="12" font-family="Arial" font-weight="bold"><tspan y="33" x="30.984375 39.648378 46.980379 54.312379 57.648378 64.32037">Angles</tspan></text>
<path transform="matrix(.72208437,0,0,.72208437,.36104218,.36104218)" stroke-width="1" stroke-linecap="butt" stroke-miterlimit="10" stroke-linejoin="miter" fill="none" stroke="#000000" d="M141 21H87.37"/>
<path transform="matrix(.72208437,0,0,.72208437,.36104218,.36104218)" d="M82.12 21 89.12 17.5 87.37 21 89.12 24.5 82.12 21Z"/>
<path transform="matrix(.72208437,0,0,.72208437,.36104218,.36104218)" stroke-width="1" stroke-linecap="butt" stroke-miterlimit="10" stroke-linejoin="miter" fill="none" stroke="#000000" d="M82.12 21 89.12 17.5 87.37 21 89.12 24.5 82.12 21Z"/>
<text xml:space="preserve" transform="matrix(.72208437 0 0 .72208437 0 0)" font-size="11" font-family="Arial" font-weight="bold"><tspan y="19" x="98.359378 106.30138 109.359378 115.47537 118.53337">K x 4</tspan></text>
<path transform="matrix(.72208437,0,0,.72208437,.36104218,.36104218)" d="M141 1H221V41H141Z" fill="#b0e3e6"/>
<path transform="matrix(.72208437,0,0,.72208437,.36104218,.36104218)" stroke-width="1" stroke-linecap="butt" stroke-miterlimit="4" stroke-linejoin="miter" fill="none" stroke="#0e8088" d="M141 1H221V41H141Z"/>
<text xml:space="preserve" transform="matrix(.72208437 0 0 .72208437 0 0)" font-size="12" font-family="Arial" font-weight="bold"><tspan y="18" x="161.9375 168.37696 175.04895 182.38095 189.71295 193.04895">Tanh +</tspan></text>
<text xml:space="preserve" transform="matrix(.72208437 0 0 .72208437 0 0)" font-size="12" font-family="Arial" font-weight="bold"><tspan y="33" x="165.3125 173.3165 179.9885 186.66049 189.99649">Scale</tspan></text>
<path transform="matrix(.72208437,0,0,.72208437,.36104218,.36104218)" stroke-width="1" stroke-linecap="butt" stroke-miterlimit="10" stroke-linejoin="miter" fill="none" stroke="#000000" d="M277 21H227.37"/>
<path transform="matrix(.72208437,0,0,.72208437,.36104218,.36104218)" d="M222.12 21 229.12 17.5 227.37 21 229.12 24.5 222.12 21Z"/>
<path transform="matrix(.72208437,0,0,.72208437,.36104218,.36104218)" stroke-width="1" stroke-linecap="butt" stroke-miterlimit="10" stroke-linejoin="miter" fill="none" stroke="#000000" d="M222.12 21 229.12 17.5 227.37 21 229.12 24.5 222.12 21Z"/>
<text xml:space="preserve" transform="matrix(.72208437 0 0 .72208437 0 0)" font-size="11" font-family="Arial" font-weight="bold"><tspan y="19" x="236.35938 244.30138 247.35938 253.47537 256.5334">K x 4</tspan></text>
<path transform="matrix(.72208437,0,0,.72208437,.36104218,.36104218)" d="M277 1H357V41H277Z" fill="#b1ddf0"/>
<path transform="matrix(.72208437,0,0,.72208437,.36104218,.36104218)" stroke-width="1" stroke-linecap="butt" stroke-miterlimit="4" stroke-linejoin="miter" fill="none" stroke="#10739e" d="M277 1H357V41H277Z"/>
<text xml:space="preserve" transform="matrix(.72208437 0 0 .72208437 0 0)" font-size="12" font-family="Arial" font-weight="bold"><tspan y="18" x="298.98439 306.31639 309.65238 316.98439 323.65638 330.32838">Linear</tspan></text>
<text xml:space="preserve" transform="matrix(.72208437 0 0 .72208437 0 0)" font-size="12" font-family="Arial" font-weight="bold"><tspan y="33" x="287.65626 295.66026 300.32826 307.66026 310.99626 317.66825 324.34025 328.33625 331.67225 339.00425">Projection</tspan></text>
<path transform="matrix(.72208437,0,0,.72208437,.36104218,.36104218)" stroke-width="1" stroke-linecap="butt" stroke-miterlimit="10" stroke-linejoin="miter" fill="none" stroke="#000000" d="M317 91V47.37"/>
<path transform="matrix(.72208437,0,0,.72208437,.36104218,.36104218)" d="M317 42.12 320.5 49.12 317 47.37 313.5 49.12 317 42.12Z"/>
<path transform="matrix(.72208437,0,0,.72208437,.36104218,.36104218)" stroke-width="1" stroke-linecap="butt" stroke-miterlimit="10" stroke-linejoin="miter" fill="none" stroke="#000000" d="M317 42.12 320.5 49.12 317 47.37 313.5 49.12 317 42.12Z"/>
<text xml:space="preserve" transform="matrix(.72208437 0 0 .72208437 0 0)" font-size="11" font-family="Arial" font-weight="bold"><tspan y="70" x="323.4375 331.3795 334.4375 340.5535 343.6115">K x D</tspan></text>
<path transform="matrix(.72208437,0,0,.72208437,.36104218,.36104218)" d="M289 91H345C345.78794 91 346.56828 91.07686 347.34107 91.230579 348.11387 91.38429 348.86424 91.611919 349.59217 91.91344 350.3201 92.214969 351.01167 92.58461 351.6668 93.02236 352.32197 93.46011 352.9281 93.95756 353.48527 94.51471 354.04243 95.07186 354.53987 95.678 354.97764 96.333148 355.41535 96.98828 355.78498 97.679828 356.08653 98.40778 356.38804 99.135738 356.61567 99.88611 356.7694 100.658908 356.92314 101.431697 356.99998 102.21206 357 103V159C356.99998 159.78794 356.92314 160.5683 356.7694 161.34108 356.61567 162.11386 356.38804 162.86423 356.08653 163.5922 355.78498 164.32015 355.41535 165.01168 354.9776 165.66681 354.53987 166.32195 354.04243 166.9281 353.48527 167.48526 352.9281 168.0424 352.32197 168.53986 351.6668 168.97762 351.01167 169.41536 350.3201 169.785 349.59217 170.08654 348.86424 170.38806 348.11387 170.61569 347.34107 170.76941 346.56828 170.92314 345.78794 171 345 171H289C288.21208 171 287.43168 170.92314 286.65888 170.76941 285.88609 170.61569 285.1357 170.38806 284.40779 170.08654 283.67985 169.785 282.98829 169.41536 282.33314 168.97762 281.678 168.53986 281.07188 168.0424 280.5147 167.48526 279.95756 166.9281 279.4601 166.32195 279.02235 165.66681 278.58457 165.01168 278.21495 164.32015 277.91343 163.5922 277.61189 162.86423 277.38429 162.11386 277.23057 161.34108 277.07685 160.5683 276.99998 159.78794 277 159V103C276.99998 102.21206 277.07685 101.431697 277.23057 100.6589 277.38429 99.88611 277.61189 99.135738 277.91343 98.40778 278.21495 97.679828 278.58457 96.98828 279.02235 96.333148 279.4601 95.678 279.95756 95.07186 280.5147 94.51471 281.07188 93.95756 281.678 93.46011 282.33314 93.02236 282.98829 92.58461 283.67985 92.214969 284.40779 91.91344 285.1357 91.611919 285.88609 91.38429 286.65888 91.230579 287.43168 91.07686 288.21208 91 289 91Z" fill="#ffe6cc"/>
<path transform="matrix(.72208437,0,0,.72208437,.36104218,.36104218)" stroke-width="1" stroke-linecap="butt" stroke-miterlimit="4" stroke-linejoin="miter" fill="none" stroke="#d79b00" d="M289 91H345C345.78794 91 346.56828 91.07686 347.34107 91.230579 348.11387 91.38429 348.86424 91.611919 349.59217 91.91344 350.3201 92.214969 351.01167 92.58461 351.6668 93.02236 352.32197 93.46011 352.9281 93.95756 353.48527 94.51471 354.04243 95.07186 354.53987 95.678 354.97764 96.333148 355.41535 96.98828 355.78498 97.679828 356.08653 98.40778 356.38804 99.135738 356.61567 99.88611 356.7694 100.658908 356.92314 101.431697 356.99998 102.21206 357 103V159C356.99998 159.78794 356.92314 160.5683 356.7694 161.34108 356.61567 162.11386 356.38804 162.86423 356.08653 163.5922 355.78498 164.32015 355.41535 165.01168 354.9776 165.66681 354.53987 166.32195 354.04243 166.9281 353.48527 167.48526 352.9281 168.0424 352.32197 168.53986 351.6668 168.97762 351.01167 169.41536 350.3201 169.785 349.59217 170.08654 348.86424 170.38806 348.11387 170.61569 347.34107 170.76941 346.56828 170.92314 345.78794 171 345 171H289C288.21208 171 287.43168 170.92314 286.65888 170.76941 285.88609 170.61569 285.1357 170.38806 284.40779 170.08654 283.67985 169.785 282.98829 169.41536 282.33314 168.97762 281.678 168.53986 281.07188 168.0424 280.5147 167.48526 279.95756 166.9281 279.4601 166.32195 279.02235 165.66681 278.58457 165.01168 278.21495 164.32015 277.91343 163.5922 277.61189 162.86423 277.38429 162.11386 277.23057 161.34108 277.07685 160.5683 276.99998 159.78794 277 159V103C276.99998 102.21206 277.07685 101.431697 277.23057 100.6589 277.38429 99.88611 277.61189 99.135738 277.91343 98.40778 278.21495 97.679828 278.58457 96.98828 279.02235 96.333148 279.4601 95.678 279.95756 95.07186 280.5147 94.51471 281.07188 93.95756 281.678 93.46011 282.33314 93.02236 282.98829 92.58461 283.67985 92.214969 284.40779 91.91344 285.1357 91.611919 285.88609 91.38429 286.65888 91.230579 287.43168 91.07686 288.21208 91 289 91Z"/>
<text xml:space="preserve" transform="matrix(.72208437 0 0 .72208437 0 0)" font-size="12" font-family="Arial" font-weight="bold"><tspan y="128" x="296.32814 306.32414 312.99613 323.66413 330.99613">Mamba</tspan></text>
<text xml:space="preserve" transform="matrix(.72208437 0 0 .72208437 0 0)" font-size="12" font-family="Arial" font-weight="bold"><tspan y="143" x="297.3125 305.9765 309.3125 316.6445 323.3165 329.9885">Blocks</tspan></text>
<path transform="matrix(.72208437,0,0,.72208437,.36104218,.36104218)" stroke-width="1" stroke-linecap="butt" stroke-miterlimit="10" stroke-linejoin="miter" fill="none" stroke="#000000" d="M180 91V66H317V47.37"/>
<path transform="matrix(.72208437,0,0,.72208437,.36104218,.36104218)" d="M317 42.12 320.5 49.12 317 47.37 313.5 49.12 317 42.12Z"/>
<path transform="matrix(.72208437,0,0,.72208437,.36104218,.36104218)" stroke-width="1" stroke-linecap="butt" stroke-miterlimit="10" stroke-linejoin="miter" fill="none" stroke="#000000" d="M317 42.12 320.5 49.12 317 47.37 313.5 49.12 317 42.12Z"/>
<path transform="matrix(.72208437,0,0,.72208437,.36104218,.36104218)" d="M152 91H208C208.78792 91 209.56827 91.07686 210.34105 91.230579 211.11385 91.38429 211.86423 91.611919 212.59218 91.91344 213.32013 92.214969 214.01168 92.58461 214.66681 93.02236 215.32195 93.46011 215.9281 93.95756 216.48526 94.51471 217.0424 95.07186 217.53986 95.678 217.97762 96.333148 218.41538 96.98828 218.785 97.679828 219.08654 98.40778 219.38805 99.135738 219.61568 99.88611 219.76941 100.658908 219.92313 101.431697 219.99999 102.21206 220 103V159C219.99999 159.78794 219.92313 160.5683 219.7694 161.34108 219.61566 162.11386 219.38805 162.86423 219.08652 163.5922 218.78499 164.32015 218.41536 165.01168 217.97762 165.66681 217.53986 166.32195 217.0424 166.9281 216.48526 167.48526 215.9281 168.0424 215.32195 168.53986 214.66681 168.97762 214.01168 169.41536 213.32013 169.785 212.59218 170.08654 211.86423 170.38806 211.11385 170.61569 210.34105 170.76941 209.56827 170.92314 208.78792 171 208 171H152C151.21207 171 150.4317 170.92314 149.6589 170.76941 148.88611 170.61569 148.13574 170.38806 147.40779 170.08654 146.67984 169.785 145.98828 169.41536 145.33315 168.97762 144.67801 168.53986 144.07186 168.0424 143.51471 167.48526 142.95755 166.9281 142.4601 166.32195 142.02236 165.66681 141.5846 165.01168 141.21495 164.32015 140.91342 163.5922 140.6119 162.86423 140.38426 162.11386 140.23056 161.34108 140.07686 160.5683 140 159.78794 140 159V103C140 102.21206 140.07686 101.431697 140.23056 100.6589 140.38426 99.88611 140.6119 99.135738 140.91342 98.40778 141.21495 97.679828 141.5846 96.98828 142.02236 96.333148 142.4601 95.678 142.95755 95.07186 143.51471 94.51471 144.07186 93.95756 144.67801 93.46011 145.33315 93.02236 145.98828 92.58461 146.67984 92.214969 147.40779 91.91344 148.13574 91.611919 148.88611 91.38429 149.6589 91.230579 150.4317 91.07686 151.21207 91 152 91Z" fill="#9dd994"/>
<path transform="matrix(.72208437,0,0,.72208437,.36104218,.36104218)" stroke-width="1" stroke-linecap="butt" stroke-miterlimit="4" stroke-linejoin="miter" fill="none" stroke="#82b366" d="M152 91H208C208.78792 91 209.56827 91.07686 210.34105 91.230579 211.11385 91.38429 211.86423 91.611919 212.59218 91.91344 213.32013 92.214969 214.01168 92.58461 214.66681 93.02236 215.32195 93.46011 215.9281 93.95756 216.48526 94.51471 217.0424 95.07186 217.53986 95.678 217.97762 96.333148 218.41538 96.98828 218.785 97.679828 219.08654 98.40778 219.38805 99.135738 219.61568 99.88611 219.76941 100.658908 219.92313 101.431697 219.99999 102.21206 220 103V159C219.99999 159.78794 219.92313 160.5683 219.7694 161.34108 219.61566 162.11386 219.38805 162.86423 219.08652 163.5922 218.78499 164.32015 218.41536 165.01168 217.97762 165.66681 217.53986 166.32195 217.0424 166.9281 216.48526 167.48526 215.9281 168.0424 215.32195 168.53986 214.66681 168.97762 214.01168 169.41536 213.32013 169.785 212.59218 170.08654 211.86423 170.38806 211.11385 170.61569 210.34105 170.76941 209.56827 170.92314 208.78792 171 208 171H152C151.21207 171 150.4317 170.92314 149.6589 170.76941 148.88611 170.61569 148.13574 170.38806 147.40779 170.08654 146.67984 169.785 145.98828 169.41536 145.33315 168.97762 144.67801 168.53986 144.07186 168.0424 143.51471 167.48526 142.95755 166.9281 142.4601 166.32195 142.02236 165.66681 141.5846 165.01168 141.21495 164.32015 140.91342 163.5922 140.6119 162.86423 140.38426 162.11386 140.23056 161.34108 140.07686 160.5683 140 159.78794 140 159V103C140 102.21206 140.07686 101.431697 140.23056 100.6589 140.38426 99.88611 140.6119 99.135738 140.91342 98.40778 141.21495 97.679828 141.5846 96.98828 142.02236 96.333148 142.4601 95.678 142.95755 95.07186 143.51471 94.51471 144.07186 93.95756 144.67801 93.46011 145.33315 93.02236 145.98828 92.58461 146.67984 92.214969 147.40779 91.91344 148.13574 91.611919 148.88611 91.38429 149.6589 91.230579 150.4317 91.07686 151.21207 91 152 91Z"/>
<text xml:space="preserve" transform="matrix(.72208437 0 0 .72208437 0 0)" font-size="12" font-family="Arial" font-weight="bold"><tspan y="135" x="155.98438 164.64838 171.32038 177.99237 185.32437 192.65637 199.32837">Decoder</tspan></text>
<path transform="matrix(.72208437,0,0,.72208437,.36104218,.36104218)" stroke-width="1" stroke-linecap="butt" stroke-miterlimit="10" stroke-linejoin="miter" fill="none" stroke="#000000" d="M91 131H133.63"/>
<path transform="matrix(.72208437,0,0,.72208437,.36104218,.36104218)" d="M138.88 131 131.88 134.5 133.63 131 131.88 127.5 138.88 131Z"/>
<path transform="matrix(.72208437,0,0,.72208437,.36104218,.36104218)" stroke-width="1" stroke-linecap="butt" stroke-miterlimit="10" stroke-linejoin="miter" fill="none" stroke="#000000" d="M138.88 131 131.88 134.5 133.63 131 131.88 127.5 138.88 131Z"/>
<text xml:space="preserve" transform="matrix(.72208437 0 0 .72208437 0 0)" font-size="11" font-family="Arial" font-weight="bold"><tspan y="129" x="102.4375 110.3795 113.4375 119.5535 122.611499">K x D</tspan></text>
<path transform="matrix(.72208437,0,0,.72208437,.36104218,.36104218)" d="M23 91H79C79.787929 91 80.56828 91.07686 81.34107 91.230579 82.11387 91.38429 82.86424 91.611919 83.59219 91.91344 84.320148 92.214969 85.01169 92.58461 85.666828 93.02236 86.32197 93.46011 86.92812 93.95756 87.485279 94.51471 88.04243 95.07186 88.53988 95.678 88.97762 96.333148 89.415378 96.98828 89.78502 97.679828 90.08655 98.40778 90.38807 99.135738 90.61569 99.88611 90.76942 100.658908 90.923137 101.431697 90.99999 102.21206 91 103V159C90.99999 159.78794 90.923137 160.5683 90.76942 161.34108 90.61569 162.11386 90.38807 162.86423 90.08655 163.5922 89.78502 164.32015 89.415378 165.01168 88.97762 165.66681 88.53988 166.32195 88.04243 166.9281 87.485279 167.48526 86.92812 168.0424 86.32197 168.53986 85.666828 168.97762 85.01169 169.41536 84.320148 169.785 83.59219 170.08654 82.86424 170.38806 82.11387 170.61569 81.34107 170.76941 80.56828 170.92314 79.787929 171 79 171H23C22.212069 171 21.431706 170.92314 20.658915 170.76941 19.886122 170.61569 19.13575 170.38806 18.407797 170.08654 17.679842 169.785 16.988295 169.41536 16.333155 168.97762 15.678014 168.53986 15.071869 168.0424 14.514718 167.48526 13.957566 166.9281 13.4601149 166.32195 13.022364 165.66681 12.584613 165.01168 12.2149729 164.32015 11.9134449 163.5922 11.611917 162.86423 11.384294 162.11386 11.230576 161.34108 11.076858 160.5683 10.999999 159.78794 11 159V103C10.999999 102.21206 11.076858 101.431697 11.230576 100.6589 11.384294 99.88611 11.611917 99.135738 11.9134449 98.40778 12.2149729 97.679828 12.584613 96.98828 13.022364 96.333148 13.4601149 95.678 13.957566 95.07186 14.514718 94.51471 15.071869 93.95756 15.678014 93.46011 16.333155 93.02236 16.988295 92.58461 17.679842 92.214969 18.407797 91.91344 19.13575 91.611919 19.886122 91.38429 20.658915 91.230579 21.431706 91.07686 22.212069 91 23 91Z" fill="#d5e8d4"/>
<path transform="matrix(.72208437,0,0,.72208437,.36104218,.36104218)" stroke-width="1" stroke-linecap="butt" stroke-miterlimit="4" stroke-linejoin="miter" fill="none" stroke="#82b366" d="M23 91H79C79.787929 91 80.56828 91.07686 81.34107 91.230579 82.11387 91.38429 82.86424 91.611919 83.59219 91.91344 84.320148 92.214969 85.01169 92.58461 85.666828 93.02236 86.32197 93.46011 86.92812 93.95756 87.485279 94.51471 88.04243 95.07186 88.53988 95.678 88.97762 96.333148 89.415378 96.98828 89.78502 97.679828 90.08655 98.40778 90.38807 99.135738 90.61569 99.88611 90.76942 100.658908 90.923137 101.431697 90.99999 102.21206 91 103V159C90.99999 159.78794 90.923137 160.5683 90.76942 161.34108 90.61569 162.11386 90.38807 162.86423 90.08655 163.5922 89.78502 164.32015 89.415378 165.01168 88.97762 165.66681 88.53988 166.32195 88.04243 166.9281 87.485279 167.48526 86.92812 168.0424 86.32197 168.53986 85.666828 168.97762 85.01169 169.41536 84.320148 169.785 83.59219 170.08654 82.86424 170.38806 82.11387 170.61569 81.34107 170.76941 80.56828 170.92314 79.787929 171 79 171H23C22.212069 171 21.431706 170.92314 20.658915 170.76941 19.886122 170.61569 19.13575 170.38806 18.407797 170.08654 17.679842 169.785 16.988295 169.41536 16.333155 168.97762 15.678014 168.53986 15.071869 168.0424 14.514718 167.48526 13.957566 166.9281 13.4601149 166.32195 13.022364 165.66681 12.584613 165.01168 12.2149729 164.32015 11.9134449 163.5922 11.611917 162.86423 11.384294 162.11386 11.230576 161.34108 11.076858 160.5683 10.999999 159.78794 11 159V103C10.999999 102.21206 11.076858 101.431697 11.230576 100.6589 11.384294 99.88611 11.611917 99.135738 11.9134449 98.40778 12.2149729 97.679828 12.584613 96.98828 13.022364 96.333148 13.4601149 95.678 13.957566 95.07186 14.514718 94.51471 15.071869 93.95756 15.678014 93.46011 16.333155 93.02236 16.988295 92.58461 17.679842 92.214969 18.407797 91.91344 19.13575 91.611919 19.886122 91.38429 20.658915 91.230579 21.431706 91.07686 22.212069 91 23 91Z"/>
<text xml:space="preserve" transform="matrix(.72208437 0 0 .72208437 0 0)" font-size="12" font-family="Arial" font-weight="bold"><tspan y="135" x="26.984375 34.988378 42.320379 48.99238 56.32438 63.65638 70.328388">Encoder</tspan></text>
<path transform="matrix(.72208437,0,0,.72208437,.36104218,.36104218)" stroke-width="1" stroke-linecap="butt" stroke-miterlimit="10" stroke-linejoin="miter" fill="none" stroke="#000000" d="M139 212H158.63"/>
<path transform="matrix(.72208437,0,0,.72208437,.36104218,.36104218)" d="M163.88 212 156.88 215.5 158.63 212 156.88 208.5 163.88 212Z"/>
<path transform="matrix(.72208437,0,0,.72208437,.36104218,.36104218)" stroke-width="1" stroke-linecap="butt" stroke-miterlimit="10" stroke-linejoin="miter" fill="none" stroke="#000000" d="M163.88 212 156.88 215.5 158.63 212 156.88 208.5 163.88 212Z"/>
<path transform="matrix(.72208437,0,0,.72208437,.36104218,.36104218)" stroke-width="1" stroke-linecap="butt" stroke-miterlimit="10" stroke-linejoin="miter" fill="none" stroke="#000000" d="M99 212H72.37"/>
<path transform="matrix(.72208437,0,0,.72208437,.36104218,.36104218)" d="M67.12 212 74.12 208.5 72.37 212 74.12 215.5 67.12 212Z"/>
<path transform="matrix(.72208437,0,0,.72208437,.36104218,.36104218)" stroke-width="1" stroke-linecap="butt" stroke-miterlimit="10" stroke-linejoin="miter" fill="none" stroke="#000000" d="M67.12 212 74.12 208.5 72.37 212 74.12 215.5 67.12 212Z"/>
<path transform="matrix(.72208437,0,0,.72208437,.36104218,.36104218)" d="M99 197H139V227H99Z" fill="#d0cee2"/>
<path transform="matrix(.72208437,0,0,.72208437,.36104218,.36104218)" stroke-width="1" stroke-linecap="butt" stroke-miterlimit="4" stroke-linejoin="miter" fill="none" stroke="#56517e" d="M99 197H139V227H99Z"/>
<text xml:space="preserve" transform="matrix(.72208437 0 0 .72208437 0 0)" font-size="12" font-family="Arial" font-weight="bold"><tspan y="209" x="106.328128 114.33212 121.66412 128.33612">Pos.</tspan></text>
<text xml:space="preserve" transform="matrix(.72208437 0 0 .72208437 0 0)" font-size="12" font-family="Arial" font-weight="bold"><tspan y="224" x="105.984378 113.98837 124.65637">Emb</tspan></text>
<path transform="matrix(.72208437,0,0,.72208437,.36104218,.36104218)" stroke-width="1" stroke-linecap="butt" stroke-miterlimit="10" stroke-linejoin="miter" fill="none" stroke="#000000" d="M180 197V177.37"/>
<path transform="matrix(.72208437,0,0,.72208437,.36104218,.36104218)" d="M180 172.12 183.5 179.12 180 177.37 176.5 179.12 180 172.12Z"/>
<path transform="matrix(.72208437,0,0,.72208437,.36104218,.36104218)" stroke-width="1" stroke-linecap="butt" stroke-miterlimit="10" stroke-linejoin="miter" fill="none" stroke="#000000" d="M180 172.12 183.5 179.12 180 177.37 176.5 179.12 180 172.12Z"/>
<path transform="matrix(.72208437,0,0,.72208437,0,0)" d="M166 178H195V191H166Z" fill="#ffffff"/>
<text xml:space="preserve" transform="matrix(.72208437 0 0 .72208437 0 0)" font-size="11" font-family="Arial" font-weight="bold"><tspan y="188" x="166.4375 174.3795 177.4375 183.5535 186.6115">K x D</tspan></text>
<path transform="matrix(.72208437,0,0,.72208437,.36104218,.36104218)" d="M195 212C194.99999 212.98491 194.90392 213.96036 194.71176 214.92635 194.5196 215.89234 194.23506 216.8303 193.85816 217.74024 193.48125 218.65016 193.0192 219.5146 192.47202 220.33353 191.92482 221.15245 191.30301 221.91014 190.60659 222.6066 189.91013 223.30303 189.15245 223.92484 188.33353 224.47202 187.5146 225.0192 186.65016 225.48125 185.74024 225.85816 184.8303 226.23506 183.89234 226.5196 182.92635 226.71176 181.96036 226.90392 180.98491 226.99999 180 227 179.01509 226.99999 178.03963 226.90392 177.07363 226.71176 176.10764 226.5196 175.16967 226.23506 174.25972 225.85816 173.34976 225.48125 172.48534 225.0192 171.66641 224.47202 170.84749 223.92484 170.08982 223.30303 169.39339 222.6066 168.69693 221.91014 168.07512 221.15245 167.52793 220.33353 166.98073 219.5146 166.51869 218.65016 166.14179 217.74024 165.76488 216.8303 165.48035 215.89234 165.28821 214.92635 165.09606 213.96036 164.99999 212.98491 165 212 164.99999 211.01508 165.09606 210.03961 165.28821 209.07361 165.48035 208.10762 165.76488 207.16967 166.14179 206.25972 166.51869 205.34978 166.98073 204.48535 167.52793 203.66643 168.07512 202.8475 168.69693 202.08982 169.39339 201.39339 170.08982 200.69693 170.84749 200.07512 171.66641 199.52793 172.48534 198.98073 173.34976 198.51869 174.25972 198.14179 175.16967 197.76488 176.10764 197.48036 177.07363 197.28821 178.03963 197.09607 179.01509 197 180 197 180.98491 197 181.96036 197.09607 182.92635 197.28823 183.89234 197.48036 184.8303 197.76488 185.74024 198.14179 186.65016 198.51869 187.5146 198.98073 188.33353 199.52793 189.15245 200.07512 189.91013 200.69693 190.60659 201.39339 191.30301 202.08982 191.92482 202.8475 192.47202 203.66645 193.0192 204.48537 193.48125 205.3498 193.85816 206.25974 194.23506 207.16967 194.5196 208.10762 194.71176 209.07361 194.90392 210.03961 194.99999 211.01508 195 212Z" fill="#bac8d3"/>
<path transform="matrix(.72208437,0,0,.72208437,.36104218,.36104218)" stroke-width="1" stroke-linecap="butt" stroke-miterlimit="4" stroke-linejoin="miter" fill="none" stroke="#23445d" d="M195 212C194.99999 212.98491 194.90392 213.96036 194.71176 214.92635 194.5196 215.89234 194.23506 216.8303 193.85816 217.74024 193.48125 218.65016 193.0192 219.5146 192.47202 220.33353 191.92482 221.15245 191.30301 221.91014 190.60659 222.6066 189.91013 223.30303 189.15245 223.92484 188.33353 224.47202 187.5146 225.0192 186.65016 225.48125 185.74024 225.85816 184.8303 226.23506 183.89234 226.5196 182.92635 226.71176 181.96036 226.90392 180.98491 226.99999 180 227 179.01509 226.99999 178.03963 226.90392 177.07363 226.71176 176.10764 226.5196 175.16967 226.23506 174.25972 225.85816 173.34976 225.48125 172.48534 225.0192 171.66641 224.47202 170.84749 223.92484 170.08982 223.30303 169.39339 222.6066 168.69693 221.91014 168.07512 221.15245 167.52793 220.33353 166.98073 219.5146 166.51869 218.65016 166.14179 217.74024 165.76488 216.8303 165.48035 215.89234 165.28821 214.92635 165.09606 213.96036 164.99999 212.98491 165 212 164.99999 211.01508 165.09606 210.03961 165.28821 209.07361 165.48035 208.10762 165.76488 207.16967 166.14179 206.25972 166.51869 205.34978 166.98073 204.48535 167.52793 203.66643 168.07512 202.8475 168.69693 202.08982 169.39339 201.39339 170.08982 200.69693 170.84749 200.07512 171.66641 199.52793 172.48534 198.98073 173.34976 198.51869 174.25972 198.14179 175.16967 197.76488 176.10764 197.48036 177.07363 197.28821 178.03963 197.09607 179.01509 197 180 197 180.98491 197 181.96036 197.09607 182.92635 197.28823 183.89234 197.48036 184.8303 197.76488 185.74024 198.14179 186.65016 198.51869 187.5146 198.98073 188.33353 199.52793 189.15245 200.07512 189.91013 200.69693 190.60659 201.39339 191.30301 202.08982 191.92482 202.8475 192.47202 203.66645 193.0192 204.48537 193.48125 205.3498 193.85816 206.25974 194.23506 207.16967 194.5196 208.10762 194.71176 209.07361 194.90392 210.03961 194.99999 211.01508 195 212Z"/>
<text xml:space="preserve" transform="matrix(.72208437 0 0 .72208437 0 0)" font-size="12" font-family="Arial" font-weight="bold"><tspan y="216" x="176.48438">+</tspan></text>
<path transform="matrix(.72208437,0,0,.72208437,.36104218,.36104218)" stroke-width="1" stroke-linecap="butt" stroke-miterlimit="10" stroke-linejoin="miter" fill="none" stroke="#000000" d="M51 197V177.37"/>
<path transform="matrix(.72208437,0,0,.72208437,.36104218,.36104218)" d="M51 172.12 54.5 179.12 51 177.37 47.5 179.12 51 172.12Z"/>
<path transform="matrix(.72208437,0,0,.72208437,.36104218,.36104218)" stroke-width="1" stroke-linecap="butt" stroke-miterlimit="10" stroke-linejoin="miter" fill="none" stroke="#000000" d="M51 172.12 54.5 179.12 51 177.37 47.5 179.12 51 172.12Z"/>
<path transform="matrix(.72208437,0,0,.72208437,0,0)" d="M37 178H66V191H37Z" fill="#ffffff"/>
<text xml:space="preserve" transform="matrix(.72208437 0 0 .72208437 0 0)" font-size="11" font-family="Arial" font-weight="bold"><tspan y="188" x="37.4375 45.3795 48.4375 54.5535 57.6115">K x D</tspan></text>
<path transform="matrix(.72208437,0,0,.72208437,.36104218,.36104218)" d="M66 212C66 212.98491 65.90392 213.96036 65.71178 214.92635 65.51963 215.89234 65.2351 216.8303 64.858188 217.74024 64.48128 218.65016 64.019229 219.5146 63.472043 220.33353 62.924856 221.15245 62.30304 221.91014 61.6066 222.6066 60.910165 223.30303 60.152479 223.92484 59.33355 224.47202 58.51462 225.0192 57.650186 225.48125 56.740247 225.85816 55.830305 226.23506 54.892339 226.5196 53.92635 226.71176 52.96036 226.90392 51.984914 226.99999 51 227 50.015085 226.99999 49.03963 226.90392 48.07364 226.71176 47.107648 226.5196 46.169679 226.23506 45.25974 225.85816 44.349798 225.48125 43.485364 225.0192 42.666444 224.47202 41.847517 223.92484 41.089834 223.30303 40.393396 222.6066 39.696958 221.91014 39.07514 221.15245 38.527956 220.33353 37.980764 219.5146 37.518716 218.65016 37.141805 217.74024 36.764894 216.8303 36.480367 215.89234 36.288217 214.92635 36.09607 213.96036 35.999998 212.98491 36 212 35.999998 211.01508 36.09607 210.03961 36.288217 209.07361 36.480367 208.10762 36.764894 207.16967 37.141805 206.25972 37.518716 205.34978 37.980764 204.48535 38.52795 203.66643 39.07514 202.8475 39.696958 202.08982 40.393396 201.39339 41.089834 200.69693 41.84751 200.07512 42.66644 199.52793 43.485364 198.98073 44.349798 198.51869 45.25974 198.14179 46.169679 197.76488 47.107648 197.48036 48.07364 197.28821 49.03963 197.09607 50.015085 197 51 197 51.984914 197 52.96036 197.09607 53.92635 197.28823 54.892339 197.48036 55.830305 197.76488 56.740247 198.14179 57.650186 198.51869 58.51462 198.98073 59.33355 199.52793 60.152479 200.07512 60.910165 200.69693 61.6066 201.39339 62.30304 202.08982 62.924856 202.8475 63.472043 203.66645 64.019229 204.48537 64.48128 205.3498 64.858188 206.25974 65.2351 207.16967 65.51963 208.10762 65.71178 209.07361 65.90392 210.03961 66 211.01508 66 212Z" fill="#bac8d3"/>
<path transform="matrix(.72208437,0,0,.72208437,.36104218,.36104218)" stroke-width="1" stroke-linecap="butt" stroke-miterlimit="4" stroke-linejoin="miter" fill="none" stroke="#23445d" d="M66 212C66 212.98491 65.90392 213.96036 65.71178 214.92635 65.51963 215.89234 65.2351 216.8303 64.858188 217.74024 64.48128 218.65016 64.019229 219.5146 63.472043 220.33353 62.924856 221.15245 62.30304 221.91014 61.6066 222.6066 60.910165 223.30303 60.152479 223.92484 59.33355 224.47202 58.51462 225.0192 57.650186 225.48125 56.740247 225.85816 55.830305 226.23506 54.892339 226.5196 53.92635 226.71176 52.96036 226.90392 51.984914 226.99999 51 227 50.015085 226.99999 49.03963 226.90392 48.07364 226.71176 47.107648 226.5196 46.169679 226.23506 45.25974 225.85816 44.349798 225.48125 43.485364 225.0192 42.666444 224.47202 41.847517 223.92484 41.089834 223.30303 40.393396 222.6066 39.696958 221.91014 39.07514 221.15245 38.527956 220.33353 37.980764 219.5146 37.518716 218.65016 37.141805 217.74024 36.764894 216.8303 36.480367 215.89234 36.288217 214.92635 36.09607 213.96036 35.999998 212.98491 36 212 35.999998 211.01508 36.09607 210.03961 36.288217 209.07361 36.480367 208.10762 36.764894 207.16967 37.141805 206.25972 37.518716 205.34978 37.980764 204.48535 38.52795 203.66643 39.07514 202.8475 39.696958 202.08982 40.393396 201.39339 41.089834 200.69693 41.84751 200.07512 42.66644 199.52793 43.485364 198.98073 44.349798 198.51869 45.25974 198.14179 46.169679 197.76488 47.107648 197.48036 48.07364 197.28821 49.03963 197.09607 50.015085 197 51 197 51.984914 197 52.96036 197.09607 53.92635 197.28823 54.892339 197.48036 55.830305 197.76488 56.740247 198.14179 57.650186 198.51869 58.51462 198.98073 59.33355 199.52793 60.152479 200.07512 60.910165 200.69693 61.6066 201.39339 62.30304 202.08982 62.924856 202.8475 63.472043 203.66645 64.019229 204.48537 64.48128 205.3498 64.858188 206.25974 65.2351 207.16967 65.51963 208.10762 65.71178 209.07361 65.90392 210.03961 66 211.01508 66 212Z"/>
<text xml:space="preserve" transform="matrix(.72208437 0 0 .72208437 0 0)" font-size="12" font-family="Arial" font-weight="bold"><tspan y="216" x="47.484376">+</tspan></text>
<path transform="matrix(.72208437,0,0,.72208437,.36104218,.36104218)" stroke-width="1" stroke-linecap="butt" stroke-miterlimit="10" stroke-linejoin="miter" fill="none" stroke="#000000" d="M51 251V233.37"/>
<path transform="matrix(.72208437,0,0,.72208437,.36104218,.36104218)" d="M51 228.12 54.5 235.12 51 233.37 47.5 235.12 51 228.12Z"/>
<path transform="matrix(.72208437,0,0,.72208437,.36104218,.36104218)" stroke-width="1" stroke-linecap="butt" stroke-miterlimit="10" stroke-linejoin="miter" fill="none" stroke="#000000" d="M51 228.12 54.5 235.12 51 233.37 47.5 235.12 51 228.12Z"/>
<path transform="matrix(.72208437,0,0,.72208437,0,0)" d="M37 233H66V246H37Z" fill="#ffffff"/>
<text xml:space="preserve" transform="matrix(.72208437 0 0 .72208437 0 0)" font-size="11" font-family="Arial" font-weight="bold"><tspan y="243" x="37.4375 45.3795 48.4375 54.5535 57.6115">K x D</tspan></text>
<path transform="matrix(.72208437,0,0,.72208437,.36104218,.36104218)" d="M18.5 251H83.5V281H18.5Z" fill="#dae8fc"/>
<path transform="matrix(.72208437,0,0,.72208437,.36104218,.36104218)" stroke-width="1" stroke-linecap="butt" stroke-miterlimit="4" stroke-linejoin="miter" fill="none" stroke="#6c8ebf" d="M18.5 251H83.5V281H18.5Z"/>
<text xml:space="preserve" transform="matrix(.72208437 0 0 .72208437 0 0)" font-size="12" font-family="Arial" font-weight="bold"><tspan y="263" x="34.5 43.164 50.496004 57.828004 61.164">Audio</tspan></text>
<text xml:space="preserve" transform="matrix(.72208437 0 0 .72208437 0 0)" font-size="12" font-family="Arial" font-weight="bold"><tspan y="278" x="38.484376 46.488378 57.15638">Emb</tspan></text>
<path transform="matrix(.72208437,0,0,.72208437,.36104218,.36104218)" stroke-width="1" stroke-linecap="butt" stroke-miterlimit="10" stroke-linejoin="miter" fill="none" stroke="#000000" d="M180 251V233.37"/>
<path transform="matrix(.72208437,0,0,.72208437,.36104218,.36104218)" d="M180 228.12 183.5 235.12 180 233.37 176.5 235.12 180 228.12Z"/>
<path transform="matrix(.72208437,0,0,.72208437,.36104218,.36104218)" stroke-width="1" stroke-linecap="butt" stroke-miterlimit="10" stroke-linejoin="miter" fill="none" stroke="#000000" d="M180 228.12 183.5 235.12 180 233.37 176.5 235.12 180 228.12Z"/>
<path transform="matrix(.72208437,0,0,.72208437,0,0)" d="M166 233H195V246H166Z" fill="#ffffff"/>
<text xml:space="preserve" transform="matrix(.72208437 0 0 .72208437 0 0)" font-size="11" font-family="Arial" font-weight="bold"><tspan y="243" x="166.4375 174.3795 177.4375 183.5535 186.6115">K x D</tspan></text>
<path transform="matrix(.72208437,0,0,.72208437,.36104218,.36104218)" d="M147.5 251H212.5V281H147.5Z" fill="#f8cecc"/>
<path transform="matrix(.72208437,0,0,.72208437,.36104218,.36104218)" stroke-width="1" stroke-linecap="butt" stroke-miterlimit="4" stroke-linejoin="miter" fill="none" stroke="#b85450" d="M147.5 251H212.5V281H147.5Z"/>
<text xml:space="preserve" transform="matrix(.72208437 0 0 .72208437 0 0)" font-size="12" font-family="Arial" font-weight="bold"><tspan y="270" x="151.48438 159.48838 166.82038 173.49237 180.16437 183.50037 191.50437 202.17237">Pose Emb</tspan></text>
<path transform="matrix(.72208437,0,0,.72208437,.36104218,.36104218)" stroke-width="1" stroke-linecap="butt" stroke-miterlimit="10" stroke-linejoin="miter" fill="none" stroke="#000000" d="M274.5 251V211H297V177.37"/>
<path transform="matrix(.72208437,0,0,.72208437,.36104218,.36104218)" d="M297 172.12 300.5 179.12 297 177.37 293.5 179.12 297 172.12Z"/>
<path transform="matrix(.72208437,0,0,.72208437,.36104218,.36104218)" stroke-width="1" stroke-linecap="butt" stroke-miterlimit="10" stroke-linejoin="miter" fill="none" stroke="#000000" d="M297 172.12 300.5 179.12 297 177.37 293.5 179.12 297 172.12Z"/>
<text xml:space="preserve" transform="matrix(.72208437 0 0 .72208437 0 0)" font-size="11" font-family="Arial" font-weight="bold"><tspan y="207" x="261.4375 269.3795 272.4375 278.5535 281.6115">K x D</tspan></text>
<path transform="matrix(.72208437,0,0,.72208437,.36104218,.36104218)" d="M242 251H307V281H242Z" fill="#dae8fc"/>
<path transform="matrix(.72208437,0,0,.72208437,.36104218,.36104218)" stroke-width="1" stroke-linecap="butt" stroke-miterlimit="4" stroke-linejoin="miter" fill="none" stroke="#6c8ebf" d="M242 251H307V281H242Z"/>
<text xml:space="preserve" transform="matrix(.72208437 0 0 .72208437 0 0)" font-size="12" font-family="Arial" font-weight="bold"><tspan y="263" x="257.5 266.164 273.496 280.828 284.164">Audio</tspan></text>
<text xml:space="preserve" transform="matrix(.72208437 0 0 .72208437 0 0)" font-size="12" font-family="Arial" font-weight="bold"><tspan y="278" x="261.48439 269.48838 280.15638">Emb</tspan></text>
<path transform="matrix(.72208437,0,0,.72208437,.36104218,.36104218)" stroke-width="1" stroke-linecap="butt" stroke-miterlimit="10" stroke-linejoin="miter" fill="none" stroke="#000000" d="M359.5 251V211H337V177.37"/>
<path transform="matrix(.72208437,0,0,.72208437,.36104218,.36104218)" d="M337 172.12 340.5 179.12 337 177.37 333.5 179.12 337 172.12Z"/>
<path transform="matrix(.72208437,0,0,.72208437,.36104218,.36104218)" stroke-width="1" stroke-linecap="butt" stroke-miterlimit="10" stroke-linejoin="miter" fill="none" stroke="#000000" d="M337 172.12 340.5 179.12 337 177.37 333.5 179.12 337 172.12Z"/>
<text xml:space="preserve" transform="matrix(.72208437 0 0 .72208437 0 0)" font-size="11" font-family="Arial" font-weight="bold"><tspan y="207" x="346.4375 354.3795 357.4375 363.5535 366.6115">K x D</tspan></text>
<path transform="matrix(.72208437,0,0,.72208437,.36104218,.36104218)" d="M327 251H392V281H327Z" fill="#f8cecc"/>
<path transform="matrix(.72208437,0,0,.72208437,.36104218,.36104218)" stroke-width="1" stroke-linecap="butt" stroke-miterlimit="4" stroke-linejoin="miter" fill="none" stroke="#b85450" d="M327 251H392V281H327Z"/>
<text xml:space="preserve" transform="matrix(.72208437 0 0 .72208437 0 0)" font-size="12" font-family="Arial" font-weight="bold"><tspan y="270" x="330.48439 338.48838 345.82038 352.49238 359.16438 362.50038 370.50437 381.17237">Pose Emb</tspan></text>
<path transform="matrix(.72208437,0,0,.72208437,.36104218,.36104218)" stroke-width="1" stroke-linecap="butt" stroke-miterlimit="10" stroke-linejoin="miter" fill="none" stroke="#000000" d="M51 311V287.37"/>
<path transform="matrix(.72208437,0,0,.72208437,.36104218,.36104218)" d="M51 282.12 54.5 289.12 51 287.37 47.5 289.12 51 282.12Z"/>
<path transform="matrix(.72208437,0,0,.72208437,.36104218,.36104218)" stroke-width="1" stroke-linecap="butt" stroke-miterlimit="10" stroke-linejoin="miter" fill="none" stroke="#000000" d="M51 282.12 54.5 289.12 51 287.37 47.5 289.12 51 282.12Z"/>
<path transform="matrix(.72208437,0,0,.72208437,0,0)" d="M32 301H71V314H32Z" fill="#ffffff"/>
<text xml:space="preserve" transform="matrix(.72208437 0 0 .72208437 0 0)" font-size="11" font-family="Arial" font-weight="bold"><tspan y="311" x="32.234376 40.176378 43.234376 49.350378 52.408376 58.524377 64.64037">K x 438</tspan></text>
<path transform="matrix(.72208437,0,0,.72208437,.36104218,.36104218)" stroke-width="1" stroke-linecap="butt" stroke-miterlimit="10" stroke-linejoin="miter" fill="none" stroke="#000000" d="M180 311V287.37"/>
<path transform="matrix(.72208437,0,0,.72208437,.36104218,.36104218)" d="M180 282.12 183.5 289.12 180 287.37 176.5 289.12 180 282.12Z"/>
<path transform="matrix(.72208437,0,0,.72208437,.36104218,.36104218)" stroke-width="1" stroke-linecap="butt" stroke-miterlimit="10" stroke-linejoin="miter" fill="none" stroke="#000000" d="M180 282.12 183.5 289.12 180 287.37 176.5 289.12 180 282.12Z"/>
<path transform="matrix(.72208437,0,0,.72208437,0,0)" d="M167 301H194V314H167Z" fill="#ffffff"/>
<text xml:space="preserve" transform="matrix(.72208437 0 0 .72208437 0 0)" font-size="11" font-family="Arial" font-weight="bold"><tspan y="311" x="167.35938 175.30138 178.35938 184.47537 187.53337">K x 4</tspan></text>
<path transform="matrix(.72208437,0,0,.72208437,.36104218,.36104218)" stroke-width="1" stroke-linecap="butt" stroke-miterlimit="10" stroke-linejoin="miter" fill="none" stroke="#000000" d="M274 311 274.39 287.37"/>
<path transform="matrix(.72208437,0,0,.72208437,.36104218,.36104218)" d="M274.48 282.12 277.86 289.18 274.39 287.37 270.87 289.06 274.48 282.12Z"/>
<path transform="matrix(.72208437,0,0,.72208437,.36104218,.36104218)" stroke-width="1" stroke-linecap="butt" stroke-miterlimit="10" stroke-linejoin="miter" fill="none" stroke="#000000" d="M274.48 282.12 277.86 289.18 274.39 287.37 270.87 289.06 274.48 282.12Z"/>
<path transform="matrix(.72208437,0,0,.72208437,0,0)" d="M255 301H294V314H255Z" fill="#ffffff"/>
<text xml:space="preserve" transform="matrix(.72208437 0 0 .72208437 0 0)" font-size="11" font-family="Arial" font-weight="bold"><tspan y="311" x="255.23438 263.17637 266.23439 272.35038 275.4084 281.52439 287.64039">K x 438</tspan></text>
<path transform="matrix(.72208437,0,0,.72208437,.36104218,.36104218)" stroke-width="1" stroke-linecap="butt" stroke-miterlimit="10" stroke-linejoin="miter" fill="none" stroke="#000000" d="M360 311 359.61 287.37"/>
<path transform="matrix(.72208437,0,0,.72208437,.36104218,.36104218)" d="M359.52 282.12 363.13 289.06 359.61 287.37 356.14 289.18 359.52 282.12Z"/>
<path transform="matrix(.72208437,0,0,.72208437,.36104218,.36104218)" stroke-width="1" stroke-linecap="butt" stroke-miterlimit="10" stroke-linejoin="miter" fill="none" stroke="#000000" d="M359.52 282.12 363.13 289.06 359.61 287.37 356.14 289.18 359.52 282.12Z"/>
<path transform="matrix(.72208437,0,0,.72208437,0,0)" d="M347 301H374V314H347Z" fill="#ffffff"/>
<text xml:space="preserve" transform="matrix(.72208437 0 0 .72208437 0 0)" font-size="11" font-family="Arial" font-weight="bold"><tspan y="311" x="347.35939 355.30137 358.35939 364.47538 367.5334">K x 4</tspan></text>
</g>
</svg>
