

<svg xmlns="http://www.w3.org/2000/svg" xmlns:xlink="http://www.w3.org/1999/xlink" xmlns:inkscape="http://www.inkscape.org/namespaces/inkscape" version="1.1" width="585.04" height="464.87998" viewBox="0 0 263.04 464.87998">

<!-- White background -->
  <rect x="-161" y="0"
        width="585.04"
        height="464.87998"
        fill="#ffffff"/>

<defs>
<clipPath id="clip_1">
<path transform="matrix(.24,0,0,.24,0,0)" d="M0 0H1095.8334V1936.4727H0Z" clip-rule="evenodd"/>
</clipPath>
</defs>
<g clip-path="url(#clip_1)">
<path transform="matrix(.7205479,0,0,.7205479,.36027397,.36027397)" d="M2 2H362V72H2Z" fill="#f8cecc"/>
<path transform="matrix(.7205479,0,0,.7205479,.36027397,.36027397)" stroke-width="3" stroke-linecap="butt" stroke-miterlimit="4" stroke-linejoin="miter" fill="none" stroke="#b85450" d="M2 2H362V72H2Z"/>
<text xml:space="preserve" transform="matrix(.7205479 0 0 .7205479 0 0)" font-size="15" font-family="Arial" font-weight="bold"><tspan y="28" x="89.890628 100.72063 109.88563 119.05063 128.21562 136.55562 144.89562 149.06562 154.06061 163.2256 171.5656 175.7356 186.5656 194.9056 208.2406 217.4056 226.57059 234.91059 239.90558 245.74059 254.08058 259.0756 268.2406">Choose the Demonstrator</tspan></text>
<path transform="matrix(.7205479,0,0,.7205479,.36027397,.36027397)" d="M2 92H362V252H2Z" fill="#ffe6cc"/>
<path transform="matrix(.7205479,0,0,.7205479,.36027397,.36027397)" stroke-width="3" stroke-linecap="butt" stroke-miterlimit="4" stroke-linejoin="miter" fill="none" stroke="#d79b00" d="M2 92H362V252H2Z"/>
<text xml:space="preserve" transform="matrix(.7205479 0 0 .7205479 0 0)" font-size="15" font-family="Arial" font-weight="bold"><tspan y="118" x="47.125 57.955 67.12 76.285 85.450008 93.79001">Choose</tspan></text>
<text xml:space="preserve" transform="matrix(.7205479 0 0 .7205479 0 0)" font-size="15" font-family="Arial" font-weight="bold"><tspan y="118" x="102.13001"> </tspan></text>
<text xml:space="preserve" transform="matrix(.7205479 0 0 .7205479 0 0)" font-size="15" font-family="Arial" font-weight="bold"><tspan y="118" x="106.30001 111.29501 120.460018 128.80002 132.97002 143.80002 152.14002 165.47502 174.64002 183.80501 192.145 197.14 202.975 211.315 216.31 220.48 229.64499 238.80998 242.97998 251.02393 259.36393 267.70393 276.86894 286.03395 290.20396 299.36897 308.53398">the Demonstration Technique</tspan></text>
<path transform="matrix(.7205479,0,0,.7205479,0,0)" d="M2 132H182V162H2Z" fill="#ffffff"/>
<path transform="matrix(.7205479,0,0,.7205479,0,0)" stroke-width="2" stroke-linecap="butt" stroke-miterlimit="4" stroke-linejoin="miter" fill="none" stroke="#000000" d="M2 132H182V162H2Z"/>
<text xml:space="preserve" transform="matrix(.7205479 0 0 .7205479 0 0)" font-size="12" font-family="Arial" font-weight="bold"><tspan y="151" x="74.984378 83.64838 86.984378 91.652378 98.32437 104.99637">Direct</tspan></text>
<path transform="matrix(.7205479,0,0,.7205479,0,0)" d="M182 132H362V162H182Z" fill="#ffffff"/>
<path transform="matrix(.7205479,0,0,.7205479,0,0)" stroke-width="2" stroke-linecap="butt" stroke-miterlimit="4" stroke-linejoin="miter" fill="none" stroke="#000000" d="M182 132H362V162H182Z"/>
<text xml:space="preserve" transform="matrix(.7205479 0 0 .7205479 0 0)" font-size="12" font-family="Arial" font-weight="bold"><tspan y="151" x="250.32813 253.66413 260.99613 268.32814 271.66413 276.33213 283.00413 289.67613">Indirect</tspan></text>
<path transform="matrix(.7205479,0,0,.7205479,.36027397,.36027397)" d="M37.75 162H146.25C146.84673 162 147.42073 162.11418 147.97205 162.34253 148.52336 162.57089 149.01001 162.89606 149.43198 163.31801 149.85391 163.73996 150.17906 164.2266 150.40744 164.77791 150.6358 165.32923 150.74999 165.90326 150.75 166.5V187.5C150.74999 188.09673 150.6358 188.67075 150.40744 189.22205 150.17906 189.77336 149.85391 190.26001 149.43198 190.68196 149.01001 191.10391 148.52336 191.42908 147.97205 191.65743 147.42073 191.88579 146.84673 191.99999 146.25 192H37.75C37.15326 191.99999 36.57923 191.88579 36.02792 191.65743 35.47661 191.42908 34.98997 191.10391 34.568017 190.68196 34.146059 190.26001 33.820898 189.77336 33.592538 189.22205 33.364179 188.67075 33.249998 188.09673 33.25 187.5V166.5C33.249998 165.90326 33.364179 165.32923 33.59254 164.77791 33.8209 164.2266 34.146059 163.73996 34.568017 163.31801 34.98997 162.89606 35.47661 162.57089 36.02792 162.34253 36.57923 162.11418 37.15326 162 37.75 162Z" fill="#f5f5f5"/>
<path transform="matrix(.7205479,0,0,.7205479,.36027397,.36027397)" stroke-width="1" stroke-linecap="butt" stroke-miterlimit="4" stroke-linejoin="miter" fill="none" stroke="#666666" d="M37.75 162H146.25C146.84673 162 147.42073 162.11418 147.97205 162.34253 148.52336 162.57089 149.01001 162.89606 149.43198 163.31801 149.85391 163.73996 150.17906 164.2266 150.40744 164.77791 150.6358 165.32923 150.74999 165.90326 150.75 166.5V187.5C150.74999 188.09673 150.6358 188.67075 150.40744 189.22205 150.17906 189.77336 149.85391 190.26001 149.43198 190.68196 149.01001 191.10391 148.52336 191.42908 147.97205 191.65743 147.42073 191.88579 146.84673 191.99999 146.25 192H37.75C37.15326 191.99999 36.57923 191.88579 36.02792 191.65743 35.47661 191.42908 34.98997 191.10391 34.568017 190.68196 34.146059 190.26001 33.820898 189.77336 33.592538 189.22205 33.364179 188.67075 33.249998 188.09673 33.25 187.5V166.5C33.249998 165.90326 33.364179 165.32923 33.59254 164.77791 33.8209 164.2266 34.146059 163.73996 34.568017 163.31801 34.98997 162.89606 35.47661 162.57089 36.02792 162.34253 36.57923 162.11418 37.15326 162 37.75 162Z"/>
<text fill="#333333" xml:space="preserve" transform="matrix(.7205479 0 0 .7205479 0 0)" font-size="12" font-family="Arial"><tspan y="181" x="62.640626 70.64462 73.308628 79.98062 86.65262 92.65262 95.98862 102.660617 109.33261 112.66861 115.33261">Kinesthetic</tspan></text>
<path transform="matrix(.7205479,0,0,.7205479,.36027397,.36027397)" d="M37.75 192H147.5C148.09673 192 148.67075 192.11418 149.22206 192.34253 149.77338 192.57088 150.26001 192.89604 150.68196 193.31801 151.10391 193.73996 151.42906 194.22658 151.65744 194.7779 151.8858 195.32921 151.99999 195.90325 152 196.5V217.5C151.99999 218.09673 151.8858 218.67076 151.65744 219.22208 151.42906 219.77336 151.10391 220.26 150.68196 220.68198 150.26001 221.10393 149.77338 221.42908 149.22206 221.65744 148.67075 221.8858 148.09673 221.99999 147.5 222H37.75C37.15326 221.99999 36.57923 221.8858 36.02792 221.65744 35.47661 221.42908 34.98997 221.10393 34.568017 220.68198 34.146059 220.26 33.820898 219.77336 33.592538 219.22206 33.364179 218.67075 33.249998 218.09673 33.25 217.5V196.5C33.249998 195.90325 33.364179 195.32921 33.59254 194.7779 33.8209 194.22658 34.146059 193.73996 34.568017 193.31801 34.98997 192.89604 35.47661 192.57088 36.02792 192.34253 36.57923 192.11418 37.15326 192 37.75 192Z" fill="#f5f5f5"/>
<path transform="matrix(.7205479,0,0,.7205479,.36027397,.36027397)" stroke-width="1" stroke-linecap="butt" stroke-miterlimit="4" stroke-linejoin="miter" fill="none" stroke="#666666" d="M37.75 192H147.5C148.09673 192 148.67075 192.11418 149.22206 192.34253 149.77338 192.57088 150.26001 192.89604 150.68196 193.31801 151.10391 193.73996 151.42906 194.22658 151.65744 194.7779 151.8858 195.32921 151.99999 195.90325 152 196.5V217.5C151.99999 218.09673 151.8858 218.67076 151.65744 219.22208 151.42906 219.77336 151.10391 220.26 150.68196 220.68198 150.26001 221.10393 149.77338 221.42908 149.22206 221.65744 148.67075 221.8858 148.09673 221.99999 147.5 222H37.75C37.15326 221.99999 36.57923 221.8858 36.02792 221.65744 35.47661 221.42908 34.98997 221.10393 34.568017 220.68198 34.146059 220.26 33.820898 219.77336 33.592538 219.22206 33.364179 218.67075 33.249998 218.09673 33.25 217.5V196.5C33.249998 195.90325 33.364179 195.32921 33.59254 194.7779 33.8209 194.22658 34.146059 193.73996 34.568017 193.31801 34.98997 192.89604 35.47661 192.57088 36.02792 192.34253 36.57923 192.11418 37.15326 192 37.75 192Z"/>
<text fill="#333333" xml:space="preserve" transform="matrix(.7205479 0 0 .7205479 0 0)" font-size="12" font-family="Arial"><tspan y="211" x="56.46875 62.46875 69.14075 71.80475 78.476749 85.14874 91.82074 98.49274 102.48874 109.160739 112.496738 115.160739 121.83273">Teleoperation</tspan></text>
<path transform="matrix(.7205479,0,0,.7205479,.36027397,.36027397)" d="M37.75 222H147.5C148.09673 222 148.67075 222.11417 149.22206 222.34252 149.77338 222.57088 150.26001 222.89604 150.68196 223.31801 151.10391 223.73996 151.42906 224.2266 151.65744 224.77791 151.8858 225.32921 151.99999 225.90325 152 226.5V247.5C151.99999 248.09673 151.8858 248.67075 151.65744 249.22206 151.42906 249.77338 151.10391 250.26001 150.68196 250.68198 150.26001 251.10393 149.77338 251.42908 149.22206 251.65744 148.67075 251.88579 148.09673 251.99999 147.5 252H37.75C37.15326 251.99999 36.57923 251.88579 36.02792 251.65744 35.47661 251.42908 34.98997 251.10393 34.568017 250.68198 34.146059 250.26001 33.820898 249.77338 33.592538 249.22206 33.364179 248.67075 33.249998 248.09673 33.25 247.5V226.5C33.249998 225.90325 33.364179 225.32921 33.59254 224.7779 33.8209 224.22658 34.146059 223.73996 34.568017 223.31801 34.98997 222.89604 35.47661 222.57088 36.02792 222.34252 36.57923 222.11417 37.15326 222 37.75 222Z" fill="#f5f5f5"/>
<path transform="matrix(.7205479,0,0,.7205479,.36027397,.36027397)" stroke-width="1" stroke-linecap="butt" stroke-miterlimit="4" stroke-linejoin="miter" fill="none" stroke="#666666" d="M37.75 222H147.5C148.09673 222 148.67075 222.11417 149.22206 222.34252 149.77338 222.57088 150.26001 222.89604 150.68196 223.31801 151.10391 223.73996 151.42906 224.2266 151.65744 224.77791 151.8858 225.32921 151.99999 225.90325 152 226.5V247.5C151.99999 248.09673 151.8858 248.67075 151.65744 249.22206 151.42906 249.77338 151.10391 250.26001 150.68196 250.68198 150.26001 251.10393 149.77338 251.42908 149.22206 251.65744 148.67075 251.88579 148.09673 251.99999 147.5 252H37.75C37.15326 251.99999 36.57923 251.88579 36.02792 251.65744 35.47661 251.42908 34.98997 251.10393 34.568017 250.68198 34.146059 250.26001 33.820898 249.77338 33.592538 249.22206 33.364179 248.67075 33.249998 248.09673 33.25 247.5V226.5C33.249998 225.90325 33.364179 225.32921 33.59254 224.7779 33.8209 224.22658 34.146059 223.73996 34.568017 223.31801 34.98997 222.89604 35.47661 222.57088 36.02792 222.34252 36.57923 222.11417 37.15326 222 37.75 222Z"/>
<text fill="#333333" xml:space="preserve" transform="matrix(.7205479 0 0 .7205479 0 0)" font-size="12" font-family="Arial"><tspan y="241" x="62.796876 70.80087 77.47287 84.14487 90.816867 97.48886 106.15286 108.816867 115.48886">Shadowing</tspan></text>
<path transform="matrix(.7205479,0,0,.7205479,.36027397,.36027397)" d="M216.5 162H327.5C328.0967 162 328.67076 162.11418 329.22206 162.34253 329.77336 162.57089 330.26 162.89606 330.68199 163.31801 331.10395 163.73996 331.42909 164.2266 331.65745 164.77791 331.8858 165.32923 331.99998 165.90326 332 166.5V187.5C331.99998 188.09673 331.8858 188.67075 331.65745 189.22205 331.42909 189.77336 331.10395 190.26001 330.68199 190.68196 330.26 191.10391 329.77336 191.42908 329.22206 191.65743 328.67076 191.88579 328.0967 191.99999 327.5 192H216.5C215.90325 191.99999 215.32923 191.88579 214.77791 191.65743 214.2266 191.42908 213.73995 191.10391 213.318 190.68196 212.89601 190.26001 212.57085 189.77336 212.3425 189.22205 212.11415 188.67075 211.99999 188.09673 212 187.5V166.5C211.99999 165.90326 212.11415 165.32923 212.3425 164.77791 212.57085 164.2266 212.89601 163.73996 213.318 163.31801 213.73995 162.89606 214.2266 162.57089 214.77791 162.34253 215.32923 162.11418 215.90325 162 216.5 162Z" fill="#f5f5f5"/>
<path transform="matrix(.7205479,0,0,.7205479,.36027397,.36027397)" stroke-width="1" stroke-linecap="butt" stroke-miterlimit="4" stroke-linejoin="miter" fill="none" stroke="#666666" d="M216.5 162H327.5C328.0967 162 328.67076 162.11418 329.22206 162.34253 329.77336 162.57089 330.26 162.89606 330.68199 163.31801 331.10395 163.73996 331.42909 164.2266 331.65745 164.77791 331.8858 165.32923 331.99998 165.90326 332 166.5V187.5C331.99998 188.09673 331.8858 188.67075 331.65745 189.22205 331.42909 189.77336 331.10395 190.26001 330.68199 190.68196 330.26 191.10391 329.77336 191.42908 329.22206 191.65743 328.67076 191.88579 328.0967 191.99999 327.5 192H216.5C215.90325 191.99999 215.32923 191.88579 214.77791 191.65743 214.2266 191.42908 213.73995 191.10391 213.318 190.68196 212.89601 190.26001 212.57085 189.77336 212.3425 189.22205 212.11415 188.67075 211.99999 188.09673 212 187.5V166.5C211.99999 165.90326 212.11415 165.32923 212.3425 164.77791 212.57085 164.2266 212.89601 163.73996 213.318 163.31801 213.73995 162.89606 214.2266 162.57089 214.77791 162.34253 215.32923 162.11418 215.90325 162 216.5 162Z"/>
<text fill="#333333" xml:space="preserve" transform="matrix(.7205479 0 0 .7205479 0 0)" font-size="12" font-family="Arial"><tspan y="181" x="239.64063 248.97663 255.64862 261.64863 268.32063 272.31663 278.31663 284.98863 288.32463 290.98863 297.6606">Observation</tspan></text>
<path transform="matrix(.7205479,0,0,.7205479,.36027397,.36027397)" d="M216.5 192H327.5C328.0967 192 328.67076 192.11418 329.22206 192.34253 329.77336 192.57088 330.26 192.89604 330.68199 193.31801 331.10395 193.73996 331.42909 194.22658 331.65745 194.7779 331.8858 195.32921 331.99998 195.90325 332 196.5V217.5C331.99998 218.09673 331.8858 218.67076 331.65745 219.22208 331.42909 219.77336 331.10395 220.26 330.68199 220.68198 330.26 221.10393 329.77336 221.42908 329.22206 221.65744 328.67076 221.8858 328.0967 221.99999 327.5 222H216.5C215.90325 221.99999 215.32923 221.8858 214.77791 221.65744 214.2266 221.42908 213.73995 221.10393 213.318 220.68198 212.89601 220.26 212.57085 219.77336 212.3425 219.22206 212.11415 218.67075 211.99999 218.09673 212 217.5V196.5C211.99999 195.90325 212.11415 195.32921 212.3425 194.7779 212.57085 194.22658 212.89601 193.73996 213.318 193.31801 213.73995 192.89604 214.2266 192.57088 214.77791 192.34253 215.32923 192.11418 215.90325 192 216.5 192Z" fill="#f5f5f5"/>
<path transform="matrix(.7205479,0,0,.7205479,.36027397,.36027397)" stroke-width="1" stroke-linecap="butt" stroke-miterlimit="4" stroke-linejoin="miter" fill="none" stroke="#666666" d="M216.5 192H327.5C328.0967 192 328.67076 192.11418 329.22206 192.34253 329.77336 192.57088 330.26 192.89604 330.68199 193.31801 331.10395 193.73996 331.42909 194.22658 331.65745 194.7779 331.8858 195.32921 331.99998 195.90325 332 196.5V217.5C331.99998 218.09673 331.8858 218.67076 331.65745 219.22208 331.42909 219.77336 331.10395 220.26 330.68199 220.68198 330.26 221.10393 329.77336 221.42908 329.22206 221.65744 328.67076 221.8858 328.0967 221.99999 327.5 222H216.5C215.90325 221.99999 215.32923 221.8858 214.77791 221.65744 214.2266 221.42908 213.73995 221.10393 213.318 220.68198 212.89601 220.26 212.57085 219.77336 212.3425 219.22206 212.11415 218.67075 211.99999 218.09673 212 217.5V196.5C211.99999 195.90325 212.11415 195.32921 212.3425 194.7779 212.57085 194.22658 212.89601 193.73996 213.318 193.31801 213.73995 192.89604 214.2266 192.57088 214.77791 192.34253 215.32923 192.11418 215.90325 192 216.5 192Z"/>
<text fill="#333333" xml:space="preserve" transform="matrix(.7205479 0 0 .7205479 0 0)" font-size="12" font-family="Arial"><tspan y="211" x="218.625 226.629 233.301 239.97299 245.97299 252.64499 256.641 262.641 265.977 272.649 279.32099 282.65699 288.6621 295.3341 302.0061 308.0061 314.6781 321.3501">Sensors on Teacher</tspan></text>
<path transform="matrix(.7205479,0,0,.7205479,.36027397,.36027397)" d="M2 362H362V462H2Z" fill="#d5e8d4"/>
<path transform="matrix(.7205479,0,0,.7205479,.36027397,.36027397)" stroke-width="3" stroke-linecap="butt" stroke-miterlimit="4" stroke-linejoin="miter" fill="none" stroke="#82b366" d="M2 362H362V462H2Z"/>
<text xml:space="preserve" transform="matrix(.7205479 0 0 .7205479 0 0)" font-size="15" font-family="Arial" font-weight="bold"><tspan y="388" x="117.40625 126.57125 134.91126 143.25125 149.08626 158.25125 162.42125 171.58625 180.75124 184.92124 197.41623 205.75623 210.75122 219.91622 229.0812 238.2462">Learning Methods</tspan></text>
<path transform="matrix(.7205479,0,0,.7205479,0,0)" d="M2 402H122V432H2Z" fill="#ffffff"/>
<path transform="matrix(.7205479,0,0,.7205479,0,0)" stroke-width="2" stroke-linecap="butt" stroke-miterlimit="4" stroke-linejoin="miter" fill="none" stroke="#000000" d="M2 402H122V432H2Z"/>
<text xml:space="preserve" transform="matrix(.7205479 0 0 .7205479 0 0)" font-size="12" font-family="Arial" font-weight="bold"><tspan y="421" x="44.3125 52.3165 59.648504 62.984506 66.3205 72.99251">Policy</tspan></text>
<path transform="matrix(.7205479,0,0,.7205479,0,0)" d="M122 432H242V462H122Z" fill="#ffffff"/>
<path transform="matrix(.7205479,0,0,.7205479,0,0)" stroke-width="2" stroke-linecap="butt" stroke-miterlimit="4" stroke-linejoin="miter" fill="none" stroke="#000000" d="M122 432H242V462H122Z"/>
<text xml:space="preserve" transform="matrix(.7205479 0 0 .7205479 0 0)" font-size="12" font-family="Arial" font-weight="bold"><tspan y="451" x="167.65625 176.99225 185.65625 188.99225">GAIL</tspan></text>
<path transform="matrix(.7205479,0,0,.7205479,.36027397,.36027397)" d="M2 572H362V642H2Z" fill="#e1d5e7"/>
<path transform="matrix(.7205479,0,0,.7205479,.36027397,.36027397)" stroke-width="3" stroke-linecap="butt" stroke-miterlimit="4" stroke-linejoin="miter" fill="none" stroke="#9673a6" d="M2 572H362V642H2Z"/>
<text xml:space="preserve" transform="matrix(.7205479 0 0 .7205479 0 0)" font-size="15" font-family="Arial" font-weight="bold"><tspan y="598" x="144.0625 154.0675 162.4075 170.7475 174.9175 184.08249 192.42249 197.41748 201.58748 210.75247">Evaluation</tspan></text>
<path transform="matrix(.7205479,0,0,.7205479,.36027397,.36027397)" d="M2 272H362V342H2Z" fill="#fff2cc"/>
<path transform="matrix(.7205479,0,0,.7205479,.36027397,.36027397)" stroke-width="3" stroke-linecap="butt" stroke-miterlimit="4" stroke-linejoin="miter" fill="none" stroke="#d6b656" d="M2 272H362V342H2Z"/>
<text xml:space="preserve" transform="matrix(.7205479 0 0 .7205479 0 0)" font-size="15" font-family="Arial" font-weight="bold"><tspan y="298" x="109.0625 119.8925 128.2325 133.2275 141.56749 145.73749 156.56749 164.90749 174.07248 179.90749 188.24748 196.58748 204.92748 214.09247 219.08747 227.42746 232.42246 236.59246 245.75745">Data Representation</tspan></text>
<path transform="matrix(.7205479,0,0,.7205479,.36027397,.36027397)" d="M2 482H362V552H2Z" fill="#dae8fc"/>
<path transform="matrix(.7205479,0,0,.7205479,.36027397,.36027397)" stroke-width="3" stroke-linecap="butt" stroke-miterlimit="4" stroke-linejoin="miter" fill="none" stroke="#6c8ebf" d="M2 482H362V552H2Z"/>
<text xml:space="preserve" transform="matrix(.7205479 0 0 .7205479 0 0)" font-size="15" font-family="Arial" font-weight="bold"><tspan y="508" x="136.57813 148.24813 157.41312 162.40811 166.57811 179.91312 184.08312 191.58312 199.92311 204.9181 209.0881 218.2531">Optimization</tspan></text>
<path transform="matrix(.7205479,0,0,.7205479,0,0)" d="M122 402H242V432H122Z" fill="#ffffff"/>
<path transform="matrix(.7205479,0,0,.7205479,0,0)" stroke-width="2" stroke-linecap="butt" stroke-miterlimit="4" stroke-linejoin="miter" fill="none" stroke="#000000" d="M122 402H242V432H122Z"/>
<text xml:space="preserve" transform="matrix(.7205479 0 0 .7205479 0 0)" font-size="12" font-family="Arial" font-weight="bold"><tspan y="421" x="151.3125 154.6485 161.9805 168.6525 175.3245 179.9925 186.66449 193.33649 196.67249 205.33649">Inverse RL</tspan></text>
<path transform="matrix(.7205479,0,0,.7205479,0,0)" d="M242 402H362V432H242Z" fill="#ffffff"/>
<path transform="matrix(.7205479,0,0,.7205479,0,0)" stroke-width="2" stroke-linecap="butt" stroke-miterlimit="4" stroke-linejoin="miter" fill="none" stroke="#000000" d="M242 402H362V432H242Z"/>
<text xml:space="preserve" transform="matrix(.7205479 0 0 .7205479 0 0)" font-size="12" font-family="Arial" font-weight="bold"><tspan y="421" x="284.65626 294.65226 301.98426 309.31626 315.98826">Model</tspan></text>
<path transform="matrix(.7205479,0,0,.7205479,0,0)" d="M2 432H122V462H2Z" fill="#ffffff"/>
<path transform="matrix(.7205479,0,0,.7205479,0,0)" stroke-width="2" stroke-linecap="butt" stroke-miterlimit="4" stroke-linejoin="miter" fill="none" stroke="#000000" d="M2 432H122V462H2Z"/>
<text xml:space="preserve" transform="matrix(.7205479 0 0 .7205479 0 0)" font-size="12" font-family="Arial" font-weight="bold"><tspan y="451" x="18.3125 26.976502 34.308504 41.640504 46.308504 52.980504 60.312505 64.3085 67.6445 74.3165 80.988498 87.66049 94.99249 98.32849">Apprenticeship</tspan></text>
<path transform="matrix(.7205479,0,0,.7205479,0,0)" d="M242 432H362V462H242Z" fill="#ffffff"/>
<path transform="matrix(.7205479,0,0,.7205479,0,0)" stroke-width="2" stroke-linecap="butt" stroke-miterlimit="4" stroke-linejoin="miter" fill="none" stroke="#000000" d="M242 432H362V462H242Z"/>
<text xml:space="preserve" transform="matrix(.7205479 0 0 .7205479 0 0)" font-size="12" font-family="Arial" font-weight="bold"><tspan y="451" x="251.3125 259.3165 265.9885 273.3205 280.6525 287.3245 294.6565 301.3285 308.0005 311.3365 321.3325 328.6645 335.9965 342.6685 346.0045">Sequence Models</tspan></text>
<path transform="matrix(.7205479,0,0,.7205479,0,0)" d="M2 522H72V552H2Z" fill="#ffffff"/>
<path transform="matrix(.7205479,0,0,.7205479,0,0)" stroke-width="2" stroke-linecap="butt" stroke-miterlimit="4" stroke-linejoin="miter" fill="none" stroke="#000000" d="M2 522H72V552H2Z"/>
<text xml:space="preserve" transform="matrix(.7205479 0 0 .7205479 0 0)" font-size="12" font-family="Arial" font-weight="bold"><tspan y="541" x="8.65625 17.99225 25.32425 28.66025 31.99625 39.32825 46.00025 49.33625 58.00025">Online RL</tspan></text>
<path transform="matrix(.7205479,0,0,.7205479,0,0)" d="M72 522H152V552H72Z" fill="#ffffff"/>
<path transform="matrix(.7205479,0,0,.7205479,0,0)" stroke-width="2" stroke-linecap="butt" stroke-miterlimit="4" stroke-linejoin="miter" fill="none" stroke="#000000" d="M72 522H152V552H72Z"/>
<text xml:space="preserve" transform="matrix(.7205479 0 0 .7205479 0 0)" font-size="12" font-family="Arial" font-weight="bold"><tspan y="541" x="75.65625 83.66025 90.332248 97.664249 101.000247 108.332248 112.32825 115.664249 122.99625 130.32825 137.00025 141.66825">Evolutionary</tspan></text>
<path transform="matrix(.7205479,0,0,.7205479,0,0)" d="M152 522H222V552H152Z" fill="#ffffff"/>
<path transform="matrix(.7205479,0,0,.7205479,0,0)" stroke-width="2" stroke-linecap="butt" stroke-miterlimit="4" stroke-linejoin="miter" fill="none" stroke="#000000" d="M152 522H222V552H152Z"/>
<text xml:space="preserve" transform="matrix(.7205479 0 0 .7205479 0 0)" font-size="12" font-family="Arial" font-weight="bold"><tspan y="541" x="163.3125 169.98047 174.64847 181.32047 188.65247 195.32447 199.32047 205.99246">Transfer</tspan></text>
<path transform="matrix(.7205479,0,0,.7205479,0,0)" d="M222 522H292V552H222Z" fill="#ffffff"/>
<path transform="matrix(.7205479,0,0,.7205479,0,0)" stroke-width="2" stroke-linecap="butt" stroke-miterlimit="4" stroke-linejoin="miter" fill="none" stroke="#000000" d="M222 522H292V552H222Z"/>
<text xml:space="preserve" transform="matrix(.7205479 0 0 .7205479 0 0)" font-size="12" font-family="Arial" font-weight="bold"><tspan y="541" x="231.65625 240.32025 247.65225 254.32425 261.65626 265.65226 268.98826 275.66026">Adaptive</tspan></text>
<path transform="matrix(.7205479,0,0,.7205479,0,0)" d="M292 522H362V552H292Z" fill="#ffffff"/>
<path transform="matrix(.7205479,0,0,.7205479,0,0)" stroke-width="2" stroke-linecap="butt" stroke-miterlimit="4" stroke-linejoin="miter" fill="none" stroke="#000000" d="M292 522H362V552H292Z"/>
<text xml:space="preserve" transform="matrix(.7205479 0 0 .7205479 0 0)" font-size="12" font-family="Arial" font-weight="bold"><tspan y="541" x="308.98439 317.64839 324.32038 328.31639 331.65238 338.32438">Active</tspan></text>
<path transform="matrix(.7205479,0,0,.7205479,0,0)" d="M2 312H122V342H2Z" fill="#ffffff"/>
<path transform="matrix(.7205479,0,0,.7205479,0,0)" stroke-width="2" stroke-linecap="butt" stroke-miterlimit="4" stroke-linejoin="miter" fill="none" stroke="#000000" d="M2 312H122V342H2Z"/>
<text xml:space="preserve" transform="matrix(.7205479 0 0 .7205479 0 0)" font-size="12" font-family="Arial" font-weight="bold"><tspan y="331" x="22.984375 31.648377 38.320379 47.65638 50.99238 58.32438 64.99638 71.66838 75.66438 82.99638 87.66438 94.33638">Raw Features</tspan></text>
<path transform="matrix(.7205479,0,0,.7205479,0,0)" d="M122 312H242V342H122Z" fill="#ffffff"/>
<path transform="matrix(.7205479,0,0,.7205479,0,0)" stroke-width="2" stroke-linecap="butt" stroke-miterlimit="4" stroke-linejoin="miter" fill="none" stroke="#000000" d="M122 312H242V342H122Z"/>
<text xml:space="preserve" transform="matrix(.7205479 0 0 .7205479 0 0)" font-size="12" font-family="Arial" font-weight="bold"><tspan y="331" x="128.3125 136.9765 143.6485 150.3205 153.6565 160.9885 168.3205 174.9925 182.3245 185.66049 192.9925 199.66449 206.33649 210.33249 217.66449 222.33249 229.00449">Designed Features</tspan></text>
<path transform="matrix(.7205479,0,0,.7205479,0,0)" d="M242 312H362V342H242Z" fill="#ffffff"/>
<path transform="matrix(.7205479,0,0,.7205479,0,0)" stroke-width="2" stroke-linecap="butt" stroke-miterlimit="4" stroke-linejoin="miter" fill="none" stroke="#000000" d="M242 312H362V342H242Z"/>
<text xml:space="preserve" transform="matrix(.7205479 0 0 .7205479 0 0)" font-size="12" font-family="Arial" font-weight="bold"><tspan y="331" x="247.96875 255.97275 262.64476 266.64076 271.30876 277.98075 284.65275 288.64875 295.32075 302.65275 305.98875 313.32075 319.99275 326.66474 330.66075 337.99275 342.66075 349.33274">Extracted Features</tspan></text>
<path transform="matrix(.7205479,0,0,.7205479,0,0)" d="M2 42H122V72H2Z" fill="#ffffff"/>
<path transform="matrix(.7205479,0,0,.7205479,0,0)" stroke-width="2" stroke-linecap="butt" stroke-miterlimit="4" stroke-linejoin="miter" fill="none" stroke="#000000" d="M2 42H122V72H2Z"/>
<text xml:space="preserve" transform="matrix(.7205479 0 0 .7205479 0 0)" font-size="12" font-family="Arial" font-weight="bold"><tspan y="61" x="45 53.664 60.996004 67.668 75">Agent</tspan></text>
<path transform="matrix(.7205479,0,0,.7205479,0,0)" d="M122 42H242V72H122Z" fill="#ffffff"/>
<path transform="matrix(.7205479,0,0,.7205479,0,0)" stroke-width="2" stroke-linecap="butt" stroke-miterlimit="4" stroke-linejoin="miter" fill="none" stroke="#000000" d="M122 42H242V72H122Z"/>
<text xml:space="preserve" transform="matrix(.7205479 0 0 .7205479 0 0)" font-size="12" font-family="Arial" font-weight="bold"><tspan y="61" x="159.42188 165.86133 172.53333 179.20532 185.87732 193.20932 199.88132">Teacher</tspan></text>
<path transform="matrix(.7205479,0,0,.7205479,0,0)" d="M242 42H362V72H242Z" fill="#ffffff"/>
<path transform="matrix(.7205479,0,0,.7205479,0,0)" stroke-width="2" stroke-linecap="butt" stroke-miterlimit="4" stroke-linejoin="miter" fill="none" stroke="#000000" d="M242 42H362V72H242Z"/>
<text xml:space="preserve" transform="matrix(.7205479 0 0 .7205479 0 0)" font-size="12" font-family="Arial" font-weight="bold"><tspan y="61" x="285.98439 295.32038 299.31639 306.64839 313.32038">Other</tspan></text>
<path transform="matrix(.7205479,0,0,.7205479,0,0)" d="M2 612H182V642H2Z" fill="#ffffff"/>
<path transform="matrix(.7205479,0,0,.7205479,0,0)" stroke-width="2" stroke-linecap="butt" stroke-miterlimit="4" stroke-linejoin="miter" fill="none" stroke="#000000" d="M2 612H182V642H2Z"/>
<text xml:space="preserve" transform="matrix(.7205479 0 0 .7205479 0 0)" font-size="12" font-family="Arial" font-weight="bold"><tspan y="631" x="57.3125 66.6485 73.9805 80.6525 87.9845 91.9805 95.3165 99.3125 105.9845 109.9805 113.3165 119.988498">Quantitative</tspan></text>
<path transform="matrix(.7205479,0,0,.7205479,0,0)" d="M182 612H362V642H182Z" fill="#ffffff"/>
<path transform="matrix(.7205479,0,0,.7205479,0,0)" stroke-width="2" stroke-linecap="butt" stroke-miterlimit="4" stroke-linejoin="miter" fill="none" stroke="#000000" d="M182 612H362V642H182Z"/>
<text xml:space="preserve" transform="matrix(.7205479 0 0 .7205479 0 0)" font-size="12" font-family="Arial" font-weight="bold"><tspan y="631" x="241.3125 250.6485 257.9805 264.6525 267.9885 271.3245 275.3205 281.9925 285.9885 289.3245 295.9965">Qualitative</tspan></text>
<path transform="matrix(.7205479,0,0,.7205479,.36027397,.36027397)" stroke-width="1" stroke-linecap="butt" stroke-miterlimit="10" stroke-linejoin="miter" fill="none" stroke="#000000" d="M182 72V85.63"/>
<path transform="matrix(.7205479,0,0,.7205479,.36027397,.36027397)" d="M182 90.88 178.5 83.88 182 85.63 185.5 83.88 182 90.88Z"/>
<path transform="matrix(.7205479,0,0,.7205479,.36027397,.36027397)" stroke-width="1" stroke-linecap="butt" stroke-miterlimit="10" stroke-linejoin="miter" fill="none" stroke="#000000" d="M182 90.88 178.5 83.88 182 85.63 185.5 83.88 182 90.88Z"/>
<path transform="matrix(.7205479,0,0,.7205479,.36027397,.36027397)" stroke-width="1" stroke-linecap="butt" stroke-miterlimit="10" stroke-linejoin="miter" fill="none" stroke="#000000" d="M182 252V265.63"/>
<path transform="matrix(.7205479,0,0,.7205479,.36027397,.36027397)" d="M182 270.88 178.5 263.88 182 265.63 185.5 263.88 182 270.88Z"/>
<path transform="matrix(.7205479,0,0,.7205479,.36027397,.36027397)" stroke-width="1" stroke-linecap="butt" stroke-miterlimit="10" stroke-linejoin="miter" fill="none" stroke="#000000" d="M182 270.88 178.5 263.88 182 265.63 185.5 263.88 182 270.88Z"/>
<path transform="matrix(.7205479,0,0,.7205479,.36027397,.36027397)" stroke-width="1" stroke-linecap="butt" stroke-miterlimit="10" stroke-linejoin="miter" fill="none" stroke="#000000" d="M182 342V355.63"/>
<path transform="matrix(.7205479,0,0,.7205479,.36027397,.36027397)" d="M182 360.88 178.5 353.88 182 355.63 185.5 353.88 182 360.88Z"/>
<path transform="matrix(.7205479,0,0,.7205479,.36027397,.36027397)" stroke-width="1" stroke-linecap="butt" stroke-miterlimit="10" stroke-linejoin="miter" fill="none" stroke="#000000" d="M182 360.88 178.5 353.88 182 355.63 185.5 353.88 182 360.88Z"/>
<path transform="matrix(.7205479,0,0,.7205479,.36027397,.36027397)" stroke-width="1" stroke-linecap="butt" stroke-miterlimit="10" stroke-linejoin="miter" fill="none" stroke="#000000" d="M182 462V475.63"/>
<path transform="matrix(.7205479,0,0,.7205479,.36027397,.36027397)" d="M182 480.88 178.5 473.88 182 475.63 185.5 473.88 182 480.88Z"/>
<path transform="matrix(.7205479,0,0,.7205479,.36027397,.36027397)" stroke-width="1" stroke-linecap="butt" stroke-miterlimit="10" stroke-linejoin="miter" fill="none" stroke="#000000" d="M182 480.88 178.5 473.88 182 475.63 185.5 473.88 182 480.88Z"/>
<path transform="matrix(.7205479,0,0,.7205479,.36027397,.36027397)" stroke-width="1" stroke-linecap="butt" stroke-miterlimit="10" stroke-linejoin="miter" fill="none" stroke="#000000" d="M182 552V565.63"/>
<path transform="matrix(.7205479,0,0,.7205479,.36027397,.36027397)" d="M182 570.88 178.5 563.88 182 565.63 185.5 563.88 182 570.88Z"/>
<path transform="matrix(.7205479,0,0,.7205479,.36027397,.36027397)" stroke-width="1" stroke-linecap="butt" stroke-miterlimit="10" stroke-linejoin="miter" fill="none" stroke="#000000" d="M182 570.88 178.5 563.88 182 565.63 185.5 563.88 182 570.88Z"/>
</g>
</svg>
